<?xml version="1.0" encoding="utf-8"?><svg xmlns="http://www.w3.org/2000/svg" xmlns:xlink="http://www.w3.org/1999/xlink"><style>:root>svg{display:none}:root>svg:target{display:block}</style><svg fill="none" viewBox="0 0 679 617" id="about" xmlns="http://www.w3.org/2000/svg"><path opacity="10" d="M2.34 616.3a4586.08 4586.08 0 0164.6-65.15c18.9-18.49 43.11-40.51 57.8-54.1 10.2-9.39 21.9-19.59 31-27.74 7.75-6.94 15.23-15.77 23.4-20.94 7.74-4.76 20.53-4.08 25.56-9.51 6.39-7.07 7.61-21.62 12.91-31.82 8.57-16.58 19.58-23.38 30.87-33.71 16.6-15.23 39.7-27.6 52.22-27.47 15.9.14 18.63 10.34 17.68 14.82-1.36 6.94-8.16 9.52-16.19 11.42-6.8 1.63-16.86 2.04-22.16 4.22-3.94 1.63-9.66 7.2-9.11 8.97 1.09 3.53 7.07 2.17 10.47 1.5 5.3-1.23 13.87-7.62 21.21-8.57 8.3-1.09 18.5-2.86 22.57 1.77 4.08 4.62 1.77 20.12 2.04 25.96.28 3.95 8.84 2.18 10.07 5.85 1.77 5.17-.95 20.53.27 25.15.54 2.31 5.85.68 6.8 2.18.95 1.5.13 4.9-1.23 6.8-2.72 4.2-14.4 13.18-15.36 18.48-.27 1.36-.82 6.12.27 8.84 1.9 4.76 11.29 4.76 11.29 19.85 0 8.3-10.2 14.82-20.67 19.17-9.52 3.94-23.66 6.93-34.81 8.16-13.06 1.5-32.23-.55-45.96 6.52-15.1 7.75-37.4 30.6-45.01 39.83-3.4 4.08-4.5 12.79-.68 15.78 3.94 3.26 10.6.54 13.19-3.27 12.78-19.03 24.88-32.22 35.08-40.38 8.43-6.8 13.32-7.2 16.32-7.34 14.68-.95 36.58-2.44 49.9-5.84 10.6-2.72 22.03-11.56 29.65-14.55 4.9-1.9 11.83-.27 15.5-3.4 7.75-6.66 20.67-17.8 22.98-35.62 1.09-8.15-13.74-12.37-19.58-12.91-5.72-.55-15.23 2.99-14.83 9.51.41 6.67 11.56 7.07 16.73 4.63 6.66-3 23.12-8.57 22.98-22.57-.13-11.56-18.36-13.05-17.95-15.23.55-3.13 25.3.14 24.48-14-.82-13.73-29.92-6.94-36.58-9.11-1.77-.54-5.17-3.13-3.54-4.08 6.94-3.94 44.47 6.66 45.15-19.17.95-34.8-55.2-17.4-63.64-22.43-5.17-3-2.31-12.1-.68-17.8 2.58-8.57 9.52-23.12 15.91-33.86 6.8-11.56 19.58-23.11 25.16-35.08 5.3-11.55 4.08-25.28 8.3-37.25 5.84-16.31 19.17-46.09 26.5-60.5 4.9-9.38 13.88-18.62 18.1-26.1 3.26-5.84 4.35-12.78 7.34-18.76 3.8-7.61 10.74-17.81 15.5-26.92 5.57-10.6 10.6-30.45 17.95-36.98 6.39-5.84 23.12-9.92 25.83-2.58 5.3 14.14-9.79 25.15-13.73 46.5-1.36 7.2-7.88 15.9-3.67 22.02 6.4 9.1 44.06 0 42.7 28.96-.82 14.81-47.05 36.7-62.55 51.39-11.56 11-23.12 24.6-30.06 37.25-2.17 4.08-4.07 8.7-1.08 10.2 3.8 2.03 15.63-.96 23.8 1.63 12.64 4.07 44.73 28 46.5 39.01 1.09 6.53-15.91 5.3-23.39 3-9.52-3.13-25.02-17.54-33.86-21.35-5.98-2.58-13.19-3.53-19.3-1.36-12.66 4.49-26.8 19.44-33.73 33.04-7.75 15.09-16.73 28.68-26.25 36.43-3.53 2.86-12.23 10.2-9.24 9.79 5.44-.82 16.72-.27 24.06-.14 10.34.28 13.47-39.56 23.26-40.24 12.92-.81 10.06 15.77 30.87 17 10.47.54-19.18-3.54-21.08 3.26-2.58 9.38-2.45 37.11 5.17 53.16 8.83 18.35 35.9 46.08 47.45 57.1 5.85 5.57 15.37 6.11 22.3 9.24 6.67 3 13.06 8.16 19.59 9.38 6.52 1.22 18.35 2.58 19.71-2.17 1.77-6.26.41-17.54-4.62-23.8-5.85-7.2-20.67-12.37-30.46-19.57-10.47-7.89-26.65-15.5-32.64-27.33-5.98-11.83-3.94-36.16-3.53-43.5.13-2.18 5.98-3 6.39-.82 2.04 11.56 1.77 51.66 5.98 70.42 3.4 14.96 6.4 33.31 19.45 41.74 16.04 10.47 41.47 24.47 53.71 31.81 5.44 3.27 14.69 1.63 19.17.41 3.4-.95 6.94-4.08 7.35-7.48.54-4.89 2.85-14.68-4.08-21.48-10.34-10.2-42.43-30.72-51.67-46.08-9.52-15.91-6.12-54.52-8.57-63.76-.82-3.27-6.12 4.89-6.12 8.29.27 26.92 14.41 114.88 21.35 141.93 2.45 9.25 11.7 20.53 20.26 20.4 9.93-.28 16.86-9.93 17.54-18.36 1.23-14.41-5.57-45.81-10.47-68.38-5.57-25.29-.95-60.9-4.76-74.64-1.63-6.25-17.68-6.93-17.68-7.75 0-.81 17.41 1.09 20.8-5.3 5.58-10.6 6.67-41.33 4.09-61.45-2.58-21.07-16.6-53.57-27.33-65.53-2.72-3-10.61 41.33-3.81 57.64 6.8 16.18 38.35 29.23 44.6 39.7 1.36 2.31-5.85 11.42-7.61 22.84-2.32 16.45-4.5 58.87-1.64 76.13 2.86 17.54 16.46 25.7 24.89 25.97 5.3.14 11.01-5.03 12.37-10.2 2.04-7.6-2.04-24.2 0-35.07 2.04-10.74 11.15-19.58 12.51-30.46 2.04-16.3 1.1-35.61 3.81-53.29 2.86-18.62 13.6-38.47 13.2-58.46-.55-32.49-18.91-105.36-16.74-136.22 1.36-19.03 19.04-35.9 29.78-49.08 9.8-12.1 17.55-23.93 26.93-35.48C657.5 36.03 682.93.53 690-7.35" stroke="#ff8400" stroke-width="3" stroke-miterlimit="10" stroke-linecap="round" stroke-linejoin="round"/></svg><svg fill="none" viewBox="0 0 9 11" id="address" xmlns="http://www.w3.org/2000/svg"><path fill-rule="evenodd" clip-rule="evenodd" d="M4.5 3.24a1.3 1.3 0 000 2.58 1.28 1.28 0 001.29-1.3A1.3 1.3 0 004.5 3.25zM4.5 0C6.6 0 9 1.6 9 4.63 9 6.65 7.5 8.77 4.5 11 1.5 8.77 0 6.65 0 4.63A4.5 4.5 0 014.5 0z" fill="#ff8400"/></svg><svg viewBox="0 0 60 11" id="arrow" xmlns="http://www.w3.org/2000/svg"><path d="M54 1l4.87 4.86-4.62 4.62M0 5.5h51"/></svg><svg viewBox="0 0 50 12" id="arrow-left" xmlns="http://www.w3.org/2000/svg"><path d="M6.05 11.1L1 6.05 6.05 1M50 5.5H19"/></svg><svg viewBox="0 0 50 12" id="arrow-right" xmlns="http://www.w3.org/2000/svg"><path d="M43.95 11.1L49 6.05 43.95 1M0 5.5h31"/></svg><svg fill="none" viewBox="0 0 26 26" id="checkbox" xmlns="http://www.w3.org/2000/svg"><path d="M25.5 13A12.5 12.5 0 1110.33.79" stroke="#ff8400"/><circle cx="13" cy="13" r="9.5" stroke="#8A1702" stroke-opacity="10"/></svg><svg fill="none" viewBox="0 0 583 279" id="contact-us" xmlns="http://www.w3.org/2000/svg"><path opacity="10" d="M84.5 304.05s-39.8-8.04-27.83-21.7c11.97-13.66 82.46.77 86.53-8.2 5.1-11.25-71.04-16.27-60.04-28.3 16.46-18 118.86 5.13 128.32-5.03-1.99-9.31-58.54-20.73-57.75-29.8 4.7-5.91 59.02 1.87 59 .9 0-.63.43-11.44.43-11.44l-1.4-2.71 3.86-20.18-1.96-1.21 5.85-26.9s3.78 4.79 16.05 4.09c5.5-.35 23.9 2.25 23.44 16.37-.32 9.97-5.17 12.9-9.2 12.54-3.1-.26-17.57-9.34-25.22-11.76-1.17-.37-2.27 8.14-2.27 8.14l-3.07-.45-6.49 33.59 4.55-10.14 3.52-2 5.28-20.85 1.37.14 8.8-27.13s20.23-11.02 26.11-19.3c1.18-1.78-1.2 9.07-5.31 11.77-1.2.8 3.3 4.92-2.19 11.23-.34.37 6.13 5.8 6.91 9.4 1.52 6.78-2.5 15.33-2.06 16.27.25.55 7.12-.64 9.48-2.03 2.3-1.29 2.93-4.32 4.82-6.12 1.94-1.9 5-3.04 6.83-5 4.75-5.12 3.01-12.98 4-16.03.34-.99 1.57-1.34 2.22-2.16 1.25-1.52 1.25-3.39 2.36-4.78 1.11-1.39 3.12-2.15 4.08-3.76 2.54-4.12 3.31-9.15 3.36-11.75.01-.9 4.27-2.48 6.15-4 2.54-1.99 3.96-6.32 6.84-8.66 8.42-6.63 19.47-4.13 27.71-5.8 12.42-2.6 41.65-15.8 59.46-25.3 3.63-1.94-31.08 18.43-47.96 25.37-17.34 7.15-34.71 7.73-37.8 9.7-.89.6-1.7 2.44-3.22 3.33-1.13.68-7.8 2.6-7.94 3-.66 2.96-4.4 7.25-7.85 9.5-3.7 2.31-7.4 6.41-8.7 9.01-1.32 2.52-1.24 20.04-6.9 25.42-3 2.83-8.32-2.93-10.62-7.79-2.8-5.96-3.32-29.94 3.14-36.53 15.5-15.7 45.68-19.1 62.87-23.1 15.7-3.56 31.93-12.44 30.79-15.14-1.41-3.33-33.68 16.25-35.66 16.2-12.55-.29-24.42.83-34.27 4.04-9.27 3.04-18 8.86-25.16 15.2-10.16 8.92-32.53 28.84-39.3 26.35-.51-.21 13.08-8.33 18.76-15.77 1.11-1.39-9.14-13.73-16.28-13.8-2.79-.09-11.12 13.28-12.47 20.61-.53 3.1 8.83 9.29 6.6 7.71-11.77-8.35-10.04-14.37-5.37-24.36a90.34 90.34 0 019.84-16.47c2.4-3.1 6.46-5.7 8.68-7.86 1.58-1.61 2.4-4 4.4-5.1 7.3-3.99 17.63-11.7 24.17-16.8 12.55-9.86 18.7-24.29 18.15-24.66-5.04-3.26-14.9 20.52-21.08 26.85C259.34 85.6 248 92.26 248 92.26c1.75-8.43 10.17-46.4 12.16-56.15.1-.57-1.69-1.83-2.4-2.78-.7-.86 5.38-23.55 5.84-28.4.02-.55-6.86-1.85-6.93-1.47-.87 4.97-5.37 22.66-7.1 28.06-.04.18-5.21 1.68-7.69 2.67-4.05 1.7-9.24 4.36-13.67 8.76-3.95 3.9-6.04 10.21-9.8 14.77-8.74 10.72-29.25 24.77-34.44 46.84-1.44 6.38 18.63 35.75 19.55 43.85 1.37 11.8.63 11.4 2.73 14.35.44.59 7.77.7 12.02-6.15 2.5-4.02-4.24-12.49-5.4-19.9-1-6.83 6.82-14.26 6.3-20.08-.52-5.81-5.59-11.91-9.49-14.62-3.87-2.61-15.96-3.48-14.05-1.18 1.88 2.21 23.35 2.86 25.18 15.33.08.87 8.38-7.06 8.6-7.83 3.6-17.7 20.98-94.6 21.52-96.09 1.85-4.99 15.02-1.05 14.43 1.53-1.32 5.9-4.18 16.34-3.7 16.47 2.18.44 32.57-8.09 50.3-8.41 16.3-.27 17.83-2.05 25.5-3.55 12.66-2.42 37-15.06 48.63-21.64 11.63-6.57 79.54-28.24 94.3-34.58 14.78-6.34 35.2-26.05 38.07-17" stroke="#F4F4F4" stroke-width="3" stroke-miterlimit="10" stroke-linecap="round" stroke-linejoin="round"/></svg><svg fill="none" viewBox="0 0 825 374" id="contacts" xmlns="http://www.w3.org/2000/svg"><path opacity="10" d="M41 378.41s-56.01-29-32.3-44.3c23.7-15.3 122.83 36.37 132.73 24.7 12.43-14.62-99.15-54.63-77.58-67.9 32.27-19.87 175.34 58.41 193.8 47.28 1.01-14.75-78.58-55.97-73.52-69.16 9.53-6.83 87.34 27.99 87.73 26.52.26-.93 5.53-16.9 5.53-16.9l-.95-4.64 14.4-28.48-2.4-2.65 20.2-37.67s3.62 8.75 22.23 12.94c8.38 1.84 34.73 13.58 28.02 34.46-4.74 14.77-13.23 17.05-19.08 14.81-4.53-1.7-22.27-21.45-32.65-28.33-1.6-1.05-6.88 11.19-6.88 11.19l-4.39-1.98-24.03 47.38 11.12-13.19 6.1-1.48 16.79-28.89 2 .8 24.73-36.76s34.92-7.83 47.24-17.7c2.52-2.13-5.67 13.04-12.97 15.32-2.12.68 2.82 8.76-8.06 15.84-.66.4 6.69 11.28 6.3 17-.62 10.76-10.29 21.82-10.01 23.41.13.93 10.9 2.1 15.01 1.02 3.99-.95 6.23-5.2 9.81-7.08 3.72-2 8.77-2.42 12.35-4.56 9.28-5.61 10.04-18.1 12.81-22.23.93-1.33 2.92-1.34 4.25-2.28 2.52-1.73 3.3-4.52 5.56-6.13 2.25-1.6 5.57-1.87 7.7-3.87 5.56-5.07 8.86-12.26 10.04-16.12.4-1.33 7.44-1.88 10.88-3.35 4.65-1.88 8.62-7.74 13.93-10.02 15.39-6.3 30.83 2.16 43.86 3.18 19.67 1.4 68.94-5.8 99.62-12.42 6.24-1.34-54.3 14.27-82.47 17.42-28.96 3.28-55.15-3.28-60.6-1.66-1.59.53-3.57 2.93-6.23 3.6-2 .54-12.75.58-13.15 1.1-2.25 4.14-9.67 8.94-15.78 10.82-6.5 1.89-13.8 6.43-16.84 9.76-3.05 3.2-10.4 29.4-21.15 35.02-5.7 2.94-11.19-7.94-12.54-16.17-1.63-10.1 7.82-46.14 20.29-53.22 29.84-16.84 76.37-9.02 103.75-7.65 24.99 1.38 53-4.96 52.46-9.47-.68-5.58-57.24 9.88-60.17 8.96-18.62-5.78-36.84-9.18-52.91-8.6-15.15.59-30.68 5.55-44.08 11.98-18.97 8.96-60.9 29.16-69.95 22.55-.67-.53 23.1-6.85 34.76-15.53 2.25-1.6-7.79-24.42-18.43-27.58-4.12-1.31-22.27 15.1-27.42 25.47-2.11 4.4 9.23 17.65 6.56 14.33-14.01-17.5-8.86-25.75 2.4-38.67 7.54-8.66 15.36-15.73 21.72-20.4 4.9-3.6 12.07-5.76 16.32-8.03 3.05-1.74 5.3-4.94 8.75-5.74 12.62-2.84 31.33-9.94 43.27-14.76 22.96-9.38 38.31-28.3 37.64-29.1-6.13-7.02-31.01 24.3-42.95 31.1-8.75 5.09-28.53 10.2-28.53 10.2 6.2-11.85 35-64.96 42.13-78.67.4-.8-1.74-3.45-2.41-5.17-.67-1.6 18.1-32.89 20.86-39.94.27-.8-9.45-5.68-9.72-5.15-3.43 7.06-17.7 31.55-22.59 38.88-.13.26-8.5.3-12.62.7-6.78.82-15.67 2.58-24.16 7.26-7.56 4.14-13.38 12.67-20.94 17.87-17.63 12.29-54.27 24.5-71.44 55.25-4.89 8.92 12.56 61.35 10.48 73.85-3 18.21-3.94 17.28-2.06 22.6.4 1.06 11.31 4.34 20.59-4.06 5.43-4.94-1-20.46.42-32.03 1.43-10.63 16.29-18.39 17.99-27.3 1.7-8.9-3.26-20.18-7.93-25.88-4.67-5.57-22.36-12.02-20.49-7.77 1.88 4.1 33.67 14.24 31.07 33.65-.26 1.32 15.53-6.97 16.19-8.03 12.94-24.9 71.72-132.32 73.17-134.32 4.9-6.66 22.87 4.84 20.9 8.44-4.5 8.25-13.22 22.63-12.56 23.03 3.07 1.58 52.1 1.82 78.7 8.9 24.47 6.57 27.52 4.57 39.62 5.6 19.93 1.79 61.68-6.7 81.86-11.55 20.18-4.85 130.86-8.22 155.63-11.38 24.76-3.17 63.67-23.88 64.1-9.13" stroke="#ff8400" stroke-width="3" stroke-miterlimit="10" stroke-linecap="round" stroke-linejoin="round"/></svg><svg fill="none" viewBox="0 0 94 48" id="cursor-slider" xmlns="http://www.w3.org/2000/svg"><circle cx="46.819" cy="23.758" r="23.258" stroke="#ff8400"/><path d="M9.575 32.417L1 23.845l8.575-8.572M84.424 32.418L93 23.846l-8.576-8.572" stroke="#ff8400"/></svg><svg fill="none" viewBox="0 0 12 14" id="doc" xmlns="http://www.w3.org/2000/svg"><path d="M7.96.61H.43V13.8h11.14V4.4L7.97.6zm2.77 4.14v.03H7.58v-3.3h.03l3.12 3.27zM1.27 12.9V1.49h5.47v4.17h4v7.25H1.26z" fill="#ff8400"/></svg><svg fill="none" viewBox="0 0 434 130" id="donor-man" xmlns="http://www.w3.org/2000/svg"><path opacity="10" d="M1 129h30l7-27c4-11 9-20 15-23h11c9 3 22 21 23 23l1-5 1-5 4-6c1-2 1-8 3-9 3-2 9-1 12-2 1-1 3-2 3-4v-6l3-2c1-2-1-3-1-3s2 0 3-2c0-1-2-4-1-6 1-1 4-2 4-4 1-1-2-3-3-5l-2-2-3-4-1-1 2-3-3-8-5-7 2-3 3-2a5 5 0 002-3V7l-2-2 1 2c0 1-2 3-4 3l1-5c-1-3-4-3-4-4l1 3v2a12 12 0 00-4-4h-1v1c0 2-3 2-3 2l2-3-3 1-8-1H76c-4 0-11 2-16 6l-5 8-1-1-1-3v3l1 2h-6l4 1 1 1h-3a8 8 0 00-2 2l4-1-1 3-2 11 2 7 2 8 4 11v12l-2 4 6-1c2 0 0-5 0-6l2-4 6-2 3-5v-7l-5-2c-1-2-4-6-4-9-1-4 1-10 5-11 4 0 6 1 7 3l2 7h3l3 1 1 1 2 3 2 1 2 1 1 3 1-3 1-3-1-3v-6l4-4c2-2 2-5 1-6l-1-3-2-6-2-1h6c3 1 3 3 4 2 2 0 4-5 3-8 0 0-1 4-4 5s-8-1-12-1c-5 0-13 3-13 3s9-2 12 0 4 4 5 7-2 10-2 9v-5s-2 6-5 8l-9 2c-2 0-3-3-4-4h-3a5 5 0 00-3 3 17 17 0 000 6 5 5 0 002 3l4 1 3 1 2-1-1-2v-1l-2-1-1 2a3 3 0 01-2 0v-2l2-2v-4l-3-3a7 7 0 00-4 0l-2 4c-1 2 0 6 1 9 1 2 5 4 7 5 1 0 3 2 4 1 1 0 3-1 2-2l-2 5c0 3 1 6 3 8l12 4 9 4 8 1-10 1-5 2-3 11-4 5a5 5 0 00-1 4l7 9a56 56 0 015 11c2 4 4 12 3 14l332 1" stroke="#ff8400" stroke-miterlimit="10" stroke-linecap="round" stroke-linejoin="round"/></svg><svg fill="none" viewBox="0 0 435 130" id="donor-woman" xmlns="http://www.w3.org/2000/svg"><path opacity="10" d="M1 129l41-1s1-19 3-27c2-6 4-15 9-18 5-2 12-2 17 2 7 4 11 17 14 25l3 5 1 7c-2 3-9 1-8 1 1 1 10 6 13-1 2-3-1-11-2-11l3 9c2 3 7 7 11 6 0 0-5-1-5-6l1-6-1-7c-2-5-8-7-9-10v-7c2-4 6-11 6-15 0-6-2-10-3-13l-1-8 2-8 6-7 7-9a48 48 0 002-8l2 11-2 4 5 11-2 3h-3l-1 1v1l1 2-1 1h-1l1 1-1 2-2 1s0 0 0 0v3l-1 3-4 1-5-1-1-8 1-15c0-3 3-5 4-7l6-9c3-5 8-13 5-20-2-3-8-2-11-2-4 0-11-3-11-3v12l-3 7-3 8-4 5-3 5c-1 3-4 7-3 12 0 8 2 9 6 13 3 4 11 10 11 14 1 5-3 11-4 15 0 10 8 10 8 10-1 1-9-1-10-8 0-4 2-12 1-16-1-3-3-5-5-6L68 63a21 21 0 01-5-13c0-4 1-9 4-12l12-12c4-3 7-8 8-13a47 47 0 002-11l-6-1c-5 0-16 2-21 7a38 38 0 00-8 17l-1 18v13a39 39 0 01-4 14c-2 5-9 12-10 17-2 4 1 8 1 12 1 2 0 5-1 7-2 3-6 1-5 2h7c2-2 4-5 3-9a21 21 0 016-16l12-10a9 9 0 004-4c1-2 1-7-1-7 0 1 3 6 6 7l9 6c3 3 3 6 3 10v11c1 5 3 8 7 11 6 3 15 9 19 14 2 2 1 8 2 8h323" stroke="#ff8400" stroke-miterlimit="10" stroke-linecap="round" stroke-linejoin="round"/></svg><svg viewBox="0 0 15 27" id="fb" xmlns="http://www.w3.org/2000/svg"><path fill-rule="evenodd" clip-rule="evenodd" d="M14.18 4.44V.1H9.8a5.48 5.48 0 00-5.6 5.33v4.05H0v4.82h4.19v11.8h5.07V14.3h4.17l.67-4.82H9.26V6.13c0-.94.8-1.7 1.79-1.7h3.13z"/></svg><svg viewBox="0 0 27 23" id="filter" xmlns="http://www.w3.org/2000/svg"><path d="M22.94 7.66a4.2 4.2 0 00-2.33.7c-.68.46-1.2 1.11-1.48 1.86H1.35c-.36 0-.7.13-.95.37-.26.24-.4.57-.4.91 0 .34.14.67.4.9.25.25.6.38.95.38h17.78c.25.67.69 1.25 1.26 1.7a4.16 4.16 0 004.17.55 4.01 4.01 0 001.7-1.32 3.72 3.72 0 00-1.21-5.5 4.21 4.21 0 00-2.11-.55zm0 5.12a1.4 1.4 0 01-.75-.21 1.3 1.3 0 01-.5-.58 1.22 1.22 0 01.3-1.4 1.42 1.42 0 011.47-.28c.24.1.45.27.6.48a1.24 1.24 0 01-.17 1.62c-.25.24-.6.37-.95.37zM1.34 5.1h1.6c.29.75.8 1.39 1.48 1.84a4.2 4.2 0 004.65 0c.68-.45 1.2-1.1 1.48-1.84h15.09c.36 0 .7-.13.95-.37.26-.24.4-.57.4-.9 0-.35-.14-.67-.4-.91-.25-.24-.6-.38-.95-.38H10.55A3.88 3.88 0 009.07.7a4.2 4.2 0 00-4.65 0c-.68.45-1.2 1.09-1.48 1.83h-1.6c-.35 0-.7.14-.94.38a1.214 1.214 0 000 1.8c.25.25.6.38.95.38zm5.4-2.56c.27 0 .53.08.76.22.22.14.4.34.5.57a1.22 1.22 0 01-.3 1.4A1.42 1.42 0 016.23 5c-.25-.1-.46-.26-.6-.47a1.24 1.24 0 01.16-1.62c.26-.24.6-.38.96-.38zm18.9 15.38h-9.69a3.88 3.88 0 00-1.48-1.84 4.2 4.2 0 00-4.65 0c-.68.45-1.2 1.1-1.48 1.84h-7c-.35 0-.7.13-.94.37-.26.24-.4.57-.4.9 0 .35.14.67.4.91.25.24.6.38.95.38h6.99c.28.74.8 1.38 1.48 1.83a4.2 4.2 0 004.65 0c.68-.45 1.2-1.09 1.48-1.83h9.69c.36 0 .7-.14.95-.38a1.214 1.214 0 000-1.8c-.25-.25-.6-.38-.95-.38zm-13.5 2.56a1.4 1.4 0 01-.74-.22 1.3 1.3 0 01-.5-.57 1.22 1.22 0 01.3-1.4c.18-.18.42-.3.68-.35.26-.05.53-.02.78.07.25.1.46.26.6.48a1.24 1.24 0 01-.16 1.61c-.25.24-.6.38-.96.38z"/></svg><svg viewBox="0 0 25 25" id="inst" xmlns="http://www.w3.org/2000/svg"><path fill-rule="evenodd" clip-rule="evenodd" d="M17.69.47H7.09A6.53 6.53 0 00.58 6.99v10.59c0 3.6 2.93 6.52 6.53 6.52H17.7c3.6 0 6.52-2.92 6.52-6.52V6.99c0-3.6-2.93-6.52-6.52-6.52zm1.05 3.95a1.54 1.54 0 00-1.54 1.53 1.55 1.55 0 001.54 1.54 1.55 1.55 0 001.09-2.63 1.54 1.54 0 00-1.1-.44zM6.3 12.29a6.1 6.1 0 1112.2 0 6.1 6.1 0 01-12.2 0zm10.82 0a4.73 4.73 0 11-9.45 0 4.73 4.73 0 019.45 0z"/></svg><svg fill="none" viewBox="0 0 18 18" id="link" xmlns="http://www.w3.org/2000/svg"><path d="M16 1.44a4.93 4.93 0 00-6.97 0L5.54 4.93l.82.82 3.49-3.49a3.77 3.77 0 015.33 5.33l-3.49 3.49.82.82L16 8.4a4.93 4.93 0 000-6.97zM7.6 15.18a3.76 3.76 0 01-6.44-2.67c0-1.04.42-1.98 1.1-2.66l3.28-3.28-.82-.82-3.28 3.28A4.93 4.93 0 008.41 16l3.28-3.28-.82-.82-3.28 3.28z" fill="#ff8400"/><path d="M4.1 12.51l8.2-8.2.83.82-8.2 8.2-.82-.82z" fill="#ff8400"/></svg><svg fill="none" viewBox="0 0 13 10" id="mail" xmlns="http://www.w3.org/2000/svg"><path d="M.77 1.7l5.25 2.82c.18.1.4.14.63.14.23 0 .46-.05.64-.14l5.25-2.82c.34-.18.66-.9.04-.9H.73c-.63 0-.3.72.04.9zM12.7 3.24L7.29 6.06c-.24.13-.4.14-.64.14-.23 0-.4-.01-.63-.14L.64 3.24c-.28-.14-.27.03-.27.15V8.5c0 .3.4.7.7.7h11.2c.3 0 .7-.4.7-.7V3.4c0-.13 0-.3-.27-.16z" fill="#ff8400"/></svg><svg fill="none" viewBox="0 0 564 442" id="mission" xmlns="http://www.w3.org/2000/svg"><path d="M1-17c13-1 36 0 44 17 5 11 5 14 10 20 6 7 27 4 37 6 11 3 72 23 71 24-5 7-8 32-7 31 0 0 5-20 15-29 2-1 15 6 22 7 11 2 29 2 36 2l7 4c2 2 11-2 17-2h34c3 6 0 11-3 12-3 2-18 6-19 5-3-3-4-5-8-6l-7-1s21 10 30 17 31 35 36 40c2 3-7-8-10-6-3 3-3 10 9 10 3-1-4 5-10 2-5-2-15-19-19-26-6-7-30-23-34-26l9 10c6 4 20 12 26 18 5 6 6 14 9 20s11 12 11 18c-1 4-3-6-6-6-2-1-5 1-5 3-1 2 2 9 2 9-6-6-20-30-30-40-9-10-32-22-33-22l27 19 8 11c4 6 15 17 17 22 0 0-2 4-1 6s6 4 7 5c0 0-3 3-7 1-11-5-25-27-31-32-5-5-32-18-32-18l23 16 27 25c3 3-8-9-11-5-2 4 10 7 10 7s-5 3-10 1-27-18-45-27h-6c-10-2-45-23-62-33-6-4-48-9-56-10-3 0 1-28 8-43 3-6-24 32-15 47 1 1 49 4 60 9 14 9 31 20 43 26 9 4 22 7 27 10 12 5 36 20 46 24 2 2 7 2 9 1l3-3c1 0 7 8 11 9s9 1 12-1l3-4h3l3-3c0 2-1 12-8 18-7 7-35 0-39 11-2 6 4 6 7 7 4 1 9 6 10 6 6 0 15 10 19 11l22 11 15 2h31c4-1 10-6 10-6 0-1-16-10-19-15-4-7-5-19 1-19 12-2 35 15 34 16-3 8-2 14-1 16 0 0 2-15 7-15 2-1 11 10 21 18 7 5 13 27 13 27-10 17-13 41-13 43l4-7c2-11 10-29 16-29l17 11c16 8 81 31 81 32-4 29-2 79-3 80 0 0-8-42-7-70 0-3-7 40 1 71 1 1-79-46-97-55-2-2-5-2-8-3l-9-9c-12-7-33-11-52-18l-21-9c-2 0 3-17 2-17 0-1-6 10-7 16-1 4-15-14-26-23l-14-12-5-6c-4-5-14-17-17-23-2-3-3-9 0-9 6-2 17 10 25 16 6 6 6 9 10 12 5 4 13 12 17 11 4 0 10-15 8-15-7 0-31-14-32-13 0 0 14 12 24 15 1 0-1 9-4 8-5-2-18-18-23-23l-5-6c-4-3-12-13-18-9v-2c-2-2-12-10-15-9-8 4-1 13 3 24 2 6 6 7 8 10 2 2 16 24 26 29l14 8c5 5 12 16 15 18 10 4 47 15 61 21l24 9c4 3 6 7 10 9 18 12 72 39 93 54 22 16 34 21 37 39 2 12-12 21-12 35 0 10 17 13 26 15" stroke="#ff8400" stroke-miterlimit="10" stroke-linecap="round" stroke-linejoin="round"/></svg><svg fill="none" viewBox="0 0 14 14" id="net" xmlns="http://www.w3.org/2000/svg"><path d="M9.57 8.33a11 11 0 000-2.66h2.26a5.5 5.5 0 010 2.66H9.57zM8.4 12.04c.4-.74.71-1.54.92-2.37h1.97a5.35 5.35 0 01-2.89 2.37zm-.16-3.7H5.1a8.85 8.85 0 010-2.67h3.12a9.8 9.8 0 010 2.67zM6.67 12.3a9.1 9.1 0 01-1.28-2.64h2.55a9.04 9.04 0 01-1.27 2.64zM4 4.33H2.05a5.28 5.28 0 012.88-2.37c-.4.74-.7 1.54-.93 2.37zM2.05 9.67H4c.23.83.53 1.63.93 2.37a5.34 5.34 0 01-2.88-2.37zm-.54-1.34a5.5 5.5 0 010-2.66h2.25a11.01 11.01 0 000 2.66H1.51zM6.67 1.7c.55.8 1 1.69 1.27 2.64H5.39A9.1 9.1 0 016.67 1.7zm4.61 2.64H9.31c-.2-.82-.51-1.62-.92-2.37a5.32 5.32 0 012.89 2.37zm-4.61-4a6.67 6.67 0 10.01 13.35A6.67 6.67 0 006.67.33z" fill="#ff8400"/></svg><svg fill="none" viewBox="0 0 853 679" id="patient" xmlns="http://www.w3.org/2000/svg"><path opacity="10" d="M30.81 689.42c55.42-65.57 230.57-158.31 282.17-180.27 18.64-7.95 34.86-16.81 52.86-23.88 28-11.08 96.43-16.66 109.73-3.52 12.94 12.65-.07 25.1-10.47 27.77-8.38 2.23-38.21-8.99-28.17-27.24 4.08-7.47 35.62 7.92 46.6 3.19 25.3-10.79 28.97-31.3 40.39-37.57 9.6-5.18 25.13-2.98 28.63 7.04 1.73 4.5 1.46-16.86-11.92-20.16-9.95-2.61-18.92 5.41-22.32 12.69-7.44 15.93-36.09 69.6-9.9 78.78 15.15 5.26 27.67-6.83 33.78-18.12 8.63-15.81 19.08-47.65 27.54-59.55 4.95-7 13.93-14.7 23.04-12.05 5.5 1.62 12.4 15.9 7.52 31.89-1.32 4.63 16.68-32.96-7.9-40.52-16-4.89-25.47 10.8-30.89 22.4-8.67 18.53-29.74 74.91-15.61 83.78 4.37 2.86 10.15 3.45 15.02 2.22 8.04-2.23 21.96-9.46 28.43-20.43 4.74-7.84 10.18-41.82 23.94-41.25 14.62.71 12.6 20.3 18.4 32.42 7.1 14.95-14.3 29.3-23.17 28.16-29.66-3.6-16.25-37.43-13.35-48.58 2.88-11.5 16.54-20.92 24.09-19.05 12.16 2.86 12.3 9.8 13.23 15.36.75 5.56-2.46 9.6-2.33 12.65.1 2.03 1.06 4.7 2.8 5.64 14.06 7.35 55.95 7.52 59.23-10.26 2.6-14.02-50.1-40-76.23-32.56-7.7 2.2 89.01 34.03 102.2-5.22 9.72-29.26-80.96-66.6-88.44-51.7-4.83 9.72 105.41 48.4 115.55 13.2 11.15-39.17-104.71-66.92-113.25-72.14-11.51-7.12 136.31 45.33 145.7 19.99 13.33-35.86-115.33-65.42-157.02-76.29-28.13-7.23-63.86-13.78-87.5-7.65-22.63 5.93-29.2 44.88-53.97 44.8-17.13-.1-8.5-50.16.73-67.7 9.23-17.54 32.87-34.86 54.8-37.7 40.63-5.2 95.88 24.74 119.91 16.04C704.4 216.05 779.12 119.3 816.58 80.68c23.35-24.1 49.53-60.7 62.62-79.1" stroke="#ff8400" stroke-width="3" stroke-miterlimit="10" stroke-linecap="round" stroke-linejoin="round"/></svg><svg viewBox="0 0 13 13" id="search" xmlns="http://www.w3.org/2000/svg"><path fill-rule="evenodd" clip-rule="evenodd" d="M.86 5.47a4.54 4.54 0 119.08 0 4.54 4.54 0 01-9.08 0zm4.54-3.1a3.1 3.1 0 100 6.2 3.1 3.1 0 000-6.2z"/><path fill-rule="evenodd" clip-rule="evenodd" d="M11.78 12.93L7.36 8.5l1.01-1.02 4.43 4.42-1.02 1.02z"/></svg><svg fill="none" viewBox="0 0 321 122" id="services-1" xmlns="http://www.w3.org/2000/svg"><path opacity="10" d="M1 38c27 9 40-48 89-35l4 1c8 4 17 17 14 24-1 3-8 2-9 10l1 8-1 2c-3 1-1 0-5-5-2-3-6-6-9-7 5 1 6-4 1-6 3 5 7 0 2-1 4 2 3-2 1-2 3 0 2-1 0-2 1-1 1-2-1-3 0 2 0 4-2 5 0-3 3-8-7-9-9-1-17 0-19 2s-2 5 0 6l3 1 7-2c4-1 3 1 4 2 2 3 8 5 9 7-5-3-16-4-19-4l-6-1c-3-1-6 0-8 2-5 4-4 11 1 8 2-2 2-6 4-6 1 0-2 4 0 5l3 1 5 1 11 4 15 3c-1-2-10-5-12-5-14-4-36-5-43 7-11 21 11 64 53 67l12-1c13-2 11-8 16-8 4 0 7 2 10 4 19 8 43-11 36-34a23 23 0 00-11-13 27 27 0 00-12-3l-6 1c-5 1-3-6-8-4-1 1-2 2-4 1h-1l-2 2h-1l-3 2-3 2c-3 1-4 5-4 8 1 7 7 11 7 23v2h4c2 0 3-2 5-3v-1 5c1 4 13 7 14-1 1-7-8-3-9-4 1 6 5 1 9-1l5-4c4-6 8-14 11-15s5 3 6 5c4 13-9 38-31 29-5-1-10-5-14-5l-10 2-10-1c-7-3-9-13-9-20 1-21 13-30 18-22 3 3 2 6 1 11 0 3 4 8 4 11-6-4-8-14-8-19 0-6-5-2-7-1l-11 2h-8c-31 2-33-13-16-8a110 110 0 0020 3c25 1 19-8 20-11 2-2 4-1 5 1s-1 5-3 6l-1-2c0-4 5-8 7-3v2l-1 4c-2 1-2 0-2-1 0-4 2-6 4-5 4 1 3 10-2 10v-1c0-2 2-3 3-4a9 9 0 001-5c0-4-3-5-5-9-1-3-1-7 1-7 0 0 11 1 9-12l-4-8c-2-4-3-8 1-7s8 9 10 12c15 27 7 34 23 35l9 2c10 3 18 17 16 31a32 32 0 01-14 23c-14 9-27 4-33 5 0 0-11 4-33 4-16 0-64-19-61-63 1-29 21-40 46-48 54-17 51 6 56 16 9 17 93 38 136 22 43-17 55-10 55-5" stroke="#ff8400" stroke-miterlimit="10" stroke-linecap="round" stroke-linejoin="round"/></svg><svg fill="none" viewBox="0 0 309 228" id="services-2" xmlns="http://www.w3.org/2000/svg"><path opacity="10" d="M-60.96 286.49s78.86-68.58 89.98-78.1c11.11-9.53.94-14.88 2.69-17.44 1.76-2.56 16.34 9.96 18.33 6.74 1.98-3.23-30.52-33.27-26.83-35.54 3.7-2.27 42.91 40.08 47.26 35.44 4.4-4.69-45.9-43.13-49.34-55.48-11.6-41.77 44.6-45.67 75.38-28.79 8.2 4.51 9.95 12.58 5.86 12.51-6.04-.1-34.86-24.78-37.4-21.58-2.52 3.19 57.31 41.58 52.81 47.34-4.5 5.77-70.32-53.2-73.33-46.22-2.09 4.85 74.53 54.65 71.39 62.23-1.3 3.14-96.22-45.33-89.73-52.94 13.06-15.33 86.56 62.66 81.55 67.86-5.01 5.2-84.2-65.42-87.24-57.77-1.77 4.48 81.5 62.7 78.89 66.02-3.4 4.33-66.5-47.83-68.2-43.77-2.06 4.9 50.83 43.54 53.61 44.57 22.88 8.39 39.66-29.45 30.63-51.69-4.75-11.69-7.47-36.1-15.9-34.97-13.35 1.8 35.88 22.45 38.26 19.76 3.53-3.99-37.04-23.84-35.64-30.3 1.4-6.46 32.45 24.85 48.86 23.81 24.14-1.53 35.47-23.84 28.7-44.91-6.78-21.07-44.88-43.85-47.65-37.95-2.77 5.9 53.78 41.27 49.5 47.72-4.26 6.45-76.27-61.98-79.46-53.8-3.19 8.2 82.47 62.8 77.56 68.02-4.92 5.2-88.34-46.8-87.16-54.92C94.57 27.5 175.2 105 170 111.04c-5.2 6.04-77.86-59.26-80.45-54.01-2.6 5.24 73.1 57.1 67.91 60.17-4 2.38-37.39-21.58-51.03-32.92-13.22-11-5.96 18.76-9.17 15.35-1.2-1.27-13.3-33.46-3.2-62.58 4.89-14.09 45.9-18.7 70.14.09 24.23 18.8 15.78 31.22 13.1 17.86-2.69-13.36-11.03-23.47-5.46-27.62 5.56-4.14 77.15-73.74 79.47-88.02" stroke="#ff8400" stroke-miterlimit="1.5" stroke-linecap="round" stroke-linejoin="round"/></svg><svg fill="none" viewBox="0 0 319 103" id="services-3" xmlns="http://www.w3.org/2000/svg"><path opacity="10" d="M1 55.92c5.39 0 1.4.12 7.5 0 4.67 0 8.26-.36 10.89-.24a4 4 0 011.92.6c.35.24.6.72.71 1.2.24.6.36 1.82.48 2.78.12 1.09.12 2.41.48 3.62.48 1.44 1.32 3.25 2.04 4.82.71 1.45 1.55 2.9 2.27 4.46.84 1.45 1.68 3.14 2.51 4.58.96 1.57 1.8 3.26 3 4.7 1.67 2.06 4.43 5.31 7.18 7.6 2.75 2.3 6.58 4.59 9.34 6.15 2.27 1.33 5.38 2.66 7.3 3.5 1.43.6 3 .72 4.43 1.09 1.55.36 3.23.96 4.9 1.08 1.8.24 4.07.12 6.23 0 2.4-.24 5.5-.48 8.14-1.08a66.83 66.83 0 0010.17-3.14c2.28-.84 4.55-2.65 6.23-3.62 1.2-.72 2.51-1.56 3.71-2.4 1.32-.85 3-1.94 4.19-3.02a41.53 41.53 0 003.83-4.34c.84-.97 1.56-1.93 2.27-3.02.84-1.2 2.16-2.9 3-4.46 1.07-1.8 2.4-4.7 3.23-6.63.72-1.57 1.2-3.26 1.67-4.83.48-1.56 1.2-4.1 1.08-4.82 0-.12-1.08.24-1.67.24-.72.12-1.8.24-2.64.24-.95.12-1.91.12-2.75.12-.84 0-1.8 0-2.63-.12-.72 0-1.44-.12-2.16-.12-.84-.12-2.27-.36-2.87-.48-.36 0-.72-.12-.96-.12 0 0-.12.48-.24.72s-.36.6-.72.97c-.24.24-.72.6-1.07.72-.48.12-1.08.24-1.56.24h-3.35c0 .12-.12.48-.24.6-.12.25-.48.73-.84 1.1l-1.08.71a7.3 7.3 0 01-1.43.6c-.48.25-1.2.37-1.8.49-.6.12-1.32.24-1.91.24h-2.4l-2.27-.36c-.72-.12-1.56-.36-2.28-.6-.6-.25-1.2-.37-1.8-.6-.6-.25-1.19-.61-1.79-.97-.48-.24-.96-.6-1.31-.97a8.43 8.43 0 01-.96-1.2c-.24-.36-.36-.85-.48-1.2-.12-.49 0-.85.12-1.33.12-.49.36-.85.6-1.21s.6-.84.95-1.09c.36-.36.96-.72 1.44-.96s.96-.36 1.44-.48c.6-.12 1.2-.12 1.8-.12.6 0 1.31.12 1.79.12.36.12.84.24 1.2.36.35.12.83.24 1.07.48.24.24.36.48.36.85 0 .36-.24.96-.48 1.32-.24.36-.6.85-1.07 1.2a7.3 7.3 0 01-1.68.97c-.6.24-1.32.36-1.92.48-.47.13-1.2.13-1.55 0-.36-.12-.84-.24-1.08-.48-.24-.24-.48-.6-.36-.96 0-.36.24-.97.6-1.33.36-.48.84-.96 1.32-1.2.6-.37 1.43-.6 2.03-.85.48-.12 1.08-.12 1.56-.24.36 0 .84 0 1.08-.24.36-.24.71-.97.95-1.2.24-.37.6-.6.96-.85.48-.24 1.2-.6 1.68-.72.36-.12.84-.12 1.2-.12.6 0 1.55.24 2.15.48a7.87 7.87 0 013 1.32c.23.12.35.37.47.6.12.25.36.85.48.97 0 .12.48.12.6.12.36 0 .96-.24 1.43-.24h1.68c.6.12 1.2.24 1.68.36.36.12.83.36 1.07.6.24.25.48.73.6.97s.96.24 1.56.36c.72.12 2.51.24 3.11.36.24 0 .72.12.72 0 .12-.48.36-2.05.36-3.01.12-.97.12-2.05.12-3.14v-3.37c-.12-1.2-.12-2.9-.36-4.1-.12-1.09-.48-2.17-.72-3.26-.24-1.2-.48-2.77-.96-3.98a14.33 14.33 0 00-1.55-3.01c-.6-.97-1.32-2.05-1.92-3.02-.6-.84-1.08-1.8-1.8-2.65-.6-.84-1.31-1.93-2.15-2.65-.72-.85-1.68-1.57-2.4-2.3-.71-.6-1.43-1.2-2.15-1.68a33.6 33.6 0 01-2.15-1.57c-.48-.36-1.08-.84-1.56-1.08a6.64 6.64 0 01-.96-.73c-.24-.24-.48-.72-.83-.96-.36-.24-.84-.48-1.32-.73-.36-.36-.84-.72-1.2-1.08-.36-.48-.72-1.09-1.2-1.57-.47-.6-.95-1.2-1.55-1.69a10.06 10.06 0 00-2.52-1.32c-.95-.24-2.39-.12-3.35-.24-.83 0-1.67 0-2.51.12-.84 0-1.8.12-2.51.24-.72.12-1.44.36-2.04.6-.84.36-2.03.84-2.87 1.33-.72.48-1.32.96-2.04 1.56-.6.6-1.31 1.21-1.91 1.81-.48.49-1.08.97-1.68 1.33-.48.36-1.08.6-1.55.84-.84.25-2.16.37-3.12.6-.48.37-1.8.73-2.87.97-.96.24-1.92.48-2.75.85-.72.24-1.56.48-2.16.96-.72.36-1.43.96-2.15 1.57-.72.6-1.44 1.32-1.92 2.05-.48.72-.96 1.44-1.31 2.17-.36.72-.6 1.57-.84 2.29-.12.72-.24 1.57-.24 2.41 0 .84-.12 1.69.12 2.41.24.73.84 1.57 1.08 2.05.11.24.11 1.45-.36 1.81-.48.48-2.04.6-2.76.97a6.7 6.7 0 00-1.8 1.2c-.6.6-1.3 1.57-1.79 2.41a6 6 0 00-.96 2.41c-.24.97-.35 2.05-.35 3.14 0 1.09.23 2.17.6 3.26.23.96 1.2 1.93 1.07 2.89-.12.84-2.51 2.17-3.11 3.01-.48.6-.72 1.33-.84 2.17a8.5 8.5 0 000 3.02c.24 1.2.96 2.9 1.44 4.1.48 1.08.95 2.17 1.67 3.01.6.97 1.44 1.7 2.04 2.54.6.72 1.08 1.56 1.67 2.4.6.85 1.2 1.7 1.8 2.42.72.84 1.91 2.05 2.75 3.01.72.85 1.56 1.7 2.28 2.54.95.96 2.03 2.17 3.1 3.13 1.2.97 2.4 2.05 3.72 2.77 1.44.85 3.47 1.7 5.03 2.3 1.43.48 3.23.72 4.3.96.73.12 1.44.36 2.16.36.84.12 2.16 0 2.75 0 .48 0 1.2 0 1.32-.36 0-.24.12-1.08.12-1.57 0-.6.12-1.32.24-1.93 0-.6.24-1.44.12-1.8 0-.13-.48-.25-.6-.49s-.36-.48-.48-.72-.12-.72-.12-1.09c0-.36.12-.96 0-1.32 0-.12-.48-.36-.71-.6-.24-.25-.48-.73-.72-1.21a5.03 5.03 0 01-.36-1.93c0-.6 0-1.33.12-1.93.12-.6.36-1.33.48-1.93.24-.48.48-1.08.83-1.57.24-.36.6-.84.96-.96s1.08-.24 1.44 0c.48.36.96 1.32 1.32 1.93.23.48.35 1.08.35 1.57 0 .48-.12.96-.24 1.2-.11.24-.47.36-.71.24a5 5 0 01-.96-.72 5.24 5.24 0 01-.6-1.45 3.47 3.47 0 010-1.57c.12-.36.36-.72.72-.72.36-.12 1.08 0 1.44.24.35.24.6.97.83 1.45.24.48.36 1.08.48 1.57.12.48.24 1.08.24 1.56 0 .6.12 1.21 0 1.81-.12.49-.24 1.2-.36 1.57-.12.24-.24.48-.36.6-.24.24-.72.37-.83.49-.12.24-.12.84-.12 1.2v.97c0 .24-.12.6-.24.84s-.36.36-.48.48-.36.12-.36.24c-.12.49-.24 1.57-.36 2.42-.12.84-.12 1.68-.12 2.4 0 .73 0 1.45.12 2.06.12.6 0 1.44.48 1.56.84.25 2.87 0 4.19-.24 1.43-.36 2.87-.96 4.07-1.56 1.2-.6 2.4-1.57 3.35-2.3.84-.72 1.44-1.68 2.03-2.4.6-.85.84-1.82 1.56-2.42 1.2-1.08 3.6-2.77 5.39-3.98 1.67-1.08 3.47-2.05 5.02-3.25a41.92 41.92 0 004.2-3.86 50.28 50.28 0 003.94-5.55 35.76 35.76 0 002.64-5.79c.72-1.8 1.43-3.73 1.8-5.66.35-2.05.6-4.47.6-6.76s-.37-4.94-.6-6.87c-.25-1.57-.48-3.26-.84-4.7-.24-1.33-.6-2.78-1.08-3.86-.36-.97-.96-1.69-1.44-2.53-.6-1.09-1.44-2.66-2.27-3.98a50.14 50.14 0 00-2.64-3.74 22.44 22.44 0 00-2.75-3.14 53.58 53.58 0 00-3.83-3.01c-1.32-1.09-2.75-2.3-3.83-3.26a25.3 25.3 0 01-2.75-2.29c-.84-.84-1.32-2.05-2.04-2.9-.72-.84-1.44-1.8-2.51-2.16-1.44-.48-3.95-.6-5.99-.6-2.15 0-5.03.12-6.94.6-1.68.48-3.35 1.8-4.67 2.65-1.08.72-2.03 1.69-3 2.53-.95.73-1.67 1.7-2.74 2.17-1.08.49-2.64.49-4.07.85-1.44.36-3.36 1.08-4.67 1.57-1.2.48-2.4.84-3.47 1.44-1.08.6-2.16 1.45-3 2.41-.6.85-1.67 2.05-2.15 3.26a19.02 19.02 0 00-1.56 5.67c-.12 1.44-.12 3.37.72 4.46.84 1.08 3.11 1.8 4.55 2.41 1.32.48 2.75.36 3.95.84 1.32.6 2.87 1.33 4.07 2.42a15 15 0 013.35 4.34c.6 1.32.72 3.01.72 4.46 0 1.32-.48 2.77-.96 3.98a11.44 11.44 0 01-2.51 3.62 7.65 7.65 0 01-3.6 1.68c-1.55.24-3.82.12-5.5-.12-1.44-.12-3.35-.6-4.3-.84-.6-.12-1.2-.48-1.69-.85-.71-.48-1.67-1.68-2.75-2.17-1.08-.36-2.4-.36-3.59-.36-1.44-.12-3.23 0-4.9-.12-1.56 0-3.6 0-4.68-.12a5.6 5.6 0 01-2.03-.48c-.48-.24-.96-.6-1.2-1.09a5.88 5.88 0 01-.36-2.17c0-1.08.24-3.13.48-4.7.24-1.57.6-3.38.84-4.82.24-1.33.6-3.02.84-4.1.24-.85.36-1.7.6-2.54.36-1.2.83-3.37 1.43-4.82.6-1.32 1.32-2.77 2.04-3.98.6-1.2 1.43-2.4 2.03-3.37.48-.85.96-1.7 1.56-2.54.6-.72 1.32-1.44 1.91-2.17.72-.84 1.44-1.8 2.16-2.53.72-.72 1.44-1.33 2.15-2.05.72-.72 1.44-1.33 2.28-2.05.96-.72 2.15-1.8 3.35-2.65 1.08-.85 2.4-1.81 3.47-2.41.84-.49 1.68-.85 2.51-1.33.84-.36 1.56-.84 2.4-1.33.84-.36 1.8-.84 2.63-1.2.84-.36 1.8-.73 2.64-.97 1.07-.36 2.51-.6 3.83-.84 1.2-.24 2.4-.48 3.59-.6l3.83-.37c1.43-.12 3.11-.12 4.43-.24 1.2 0 2.4-.12 3.59 0 1.55.12 3.95.49 5.62.85 1.56.36 3.12.72 4.67 1.32 1.92.73 5.03 1.93 7.07 2.9 1.67.84 3.35 1.8 4.9 3.01 1.8 1.33 3.83 3.14 5.63 4.7 1.67 1.57 3.83 3.38 5.03 4.7.95.97 1.91 2.06 2.63 2.9.6.73 1.32 1.81 1.56 2.3.12.23 0 .48-.12.72s-.6.72-.96.96c-.36.36-.96.85-1.44 1.2-.6.49-1.31 1.1-1.91 1.45-.6.37-1.32.6-1.92.85-.84.36-1.91.84-2.87 1.32-1.08.49-2.87 1.21-3.71 1.45-.24.12-.84-.72-1.32-.84-.36-.12-.72-.12-.96-.12-.35.12-.95.24-1.43.48s-.96.6-1.44.84c-.36.24-1.08.73-1.2.73-.24 0-.71-.49-.95-.49a3.11 3.11 0 00-.96-.36c-.24 0-.84-.12-1.32 0-.48 0-1.08.12-1.55.36-.6.13-1.32.49-1.92.73-.6.36-1.32.72-1.8 1.08l-1.43 1.09c-.48.36-.84.72-1.2 1.08-.36.37-.96.97-1.2 1.45-.23.36-.6.72-.71 1.2a5.9 5.9 0 00-.48 1.33c-.12.49-.24.97-.24 1.45 0 .36 0 .6.12.96.12.25.24.6.48.85.12.24.36.36.6.36.35 0 .95-.24 1.55-.48.6-.24 1.32-.48 1.8-.85.48-.24.83-.6 1.2-.84.35-.36.71-.84.95-1.2.24-.37.36-.73.48-1.1.12-.35.36-.84.36-1.2s0-.72-.24-.96a1.23 1.23 0 00-.72-.6c-.36 0-1.08 0-1.55.24-.48.24-1.08.48-1.44.96a7.03 7.03 0 00-1.32 1.81c-.36.6-.72 1.57-.84 2.17-.12.48-.23.84-.23 1.33 0 .36-.12.84.11 1.2.24.36.96.49 1.44.73.6.12 1.44.24 2.16.24.71 0 1.67 0 2.51-.12.84-.12 1.8-.36 2.63-.73.84-.24 1.68-.72 2.28-.96.6-.24 1.2-.6 1.67-1.09.6-.48 1.2-1.08 1.68-1.56.36-.49.72-.97.84-1.45.12-.36.36-.72.36-1.09 0-.24-.12-.72-.12-.84s.48-.24.83-.36c.36-.12.84-.36 1.2-.6l.72-.37c.24-.24.72-.48.96-.84.24-.24.36-.6.48-.84.12-.25.24-.49.24-.73s-.12-.6-.12-.84c0-.12-.12-.24 0-.24.24-.12.71-.12 1.07-.24.6-.25 1.92-.73 2.88-1.09.95-.36 1.8-.72 2.63-1.09a22.5 22.5 0 002.87-1.68c.84-.6 1.8-1.45 2.4-1.93.48-.36 1.07-1.09 1.31-1.09.48.12 1.08 1.45 1.56 2.3.48.84.84 1.8 1.2 2.77.36 1.08.83 2.4 1.2 3.73.35 1.33.83 3.02 1.2 4.47a33 33 0 01.7 4.58c.13 1.08.37 2.17.37 3.25.12 1.57 0 4.83 0 6.03 0 .49-.12 1.45 0 1.57.12.12.84.12 1.31.12l195.93-.12" stroke="#ff8400" stroke-miterlimit="10" stroke-linecap="round" stroke-linejoin="round"/></svg><svg fill="none" viewBox="0 0 317 122" id="services-4" xmlns="http://www.w3.org/2000/svg"><path opacity="10" d="M1 118.29c18.27.14 22.46.28 33.3 0 .72 0 1.15-2.14 1.43-3.14.72-2.42 1.57-5.99 2.14-8.98.58-3.28 1.29-7 1.57-10.42.29-3.28.43-7.41.29-9.98a11.27 11.27 0 00-1.43-4.85c-1-1.57-2.7-3.42-4.28-4.85-1.71-1.57-3.7-2.85-5.7-4.28a132.6 132.6 0 00-7.86-5.56c-2-1.28-4.28-2.28-6.13-3.28-1.57-.71-3.71-1.42-4.86-2.14a9.6 9.6 0 01-2.14-2 5.14 5.14 0 01-.85-2.85c0-1.28.28-3.56.57-4.99.28-1.14.71-2.42 1-3.42.28-.71.85-1.43 1.14-2.14.57-1.43 1.71-4.14 2.42-6.27.72-2 1-4.14 1.86-6.14 1-2 2.57-4 4-5.7a46.5 46.5 0 014.42-4.7c2-1.72 5.7-4.43 7.56-6a37.2 37.2 0 003.29-3.42C33.88 11.9 35.3 9.9 36.3 8.9a7.85 7.85 0 012.57-1.85 3.96 3.96 0 012.57 0c.72.28 1.43.7 1.57 1.42.29.72.29 2.14 0 3.14-.71 1.85-3.14 5.99-4 7.7-.42.71-1 1.43-1.42 2.14-.86 1-2.28 2.71-3.28 4-1.29 1.7-3.14 4.13-4.57 6.13-1.28 1.85-2.57 3.99-3.57 5.7a31.16 31.16 0 00-1.85 3.85 10.17 10.17 0 00-.86 3.28c-.14 1 0 2.28.29 3.14.28.57.7 1.14 1.28 1.57 1.14.71 3.57 1.85 5.42 2.57 2 .7 4.43 1.28 6.14 2 1.43.56 2.85 1.13 4.28 1.85 1.29.7 2.57 1.56 3.86 2.14 1.42.7 3.7 1.28 4.99 1.7 1 .3 2.14.58 3 .72.85.14 1.71.14 2.57.29.85.14 1.85.14 2.7.42.86.29 2 .72 2.72 1.14.57.43 1.14.86 1.43 1.57.28.86.57 2.43.71 3.71.14 1.43 0 3.14 0 4.7 0 2-.28 5-.14 6.85 0 1.57.43 3.28.57 4.57.28 1.14.71 2.28 1 3.42.28 1.43.71 3.42.85 5.13.15 1.86.29 4 0 5.85-.28 1.86-.85 3.7-1.57 5.14-.71 1.28-1.7 2.85-2.7 3.56-.86.57-2.3.71-3.29.57a6.95 6.95 0 01-3-2 11.2 11.2 0 01-2-4.13 20.38 20.38 0 01-1-5.28c-.28-2-.28-4.42-.28-6.56v-6.27c.14-1.43.43-2.86.57-4.28 0-1.71 0-4.28-.14-5.56a6.5 6.5 0 00-.72-2c-.42-.43-1.14-.57-1.7-.71-.86-.15-2.43 0-3.58-.29a63.8 63.8 0 01-5.85-1.28c-2.28-.57-6.42-1.71-8.13-2.14-.72-.14-1.43-.14-2-.14-.71 0-1.57.14-2.57.14-1-.14-2.14-.86-3-1.57-1-1-2.14-2.57-3-4.14-1-1.85-2.56-5.42-3.42-6.99-.43-.85-1.14-1.7-1.71-2.42-.57-.71-1.29-1.43-1.86-2.14-.57-.85-1-1.57-1.28-2.57-.29-1.14-.29-2.7-.43-3.85-.14-1.14 0-2.28-.14-3.42A24.14 24.14 0 0011.6 36c-.14-1-.57-2-.57-3.14a8.95 8.95 0 01.15-3.42c.28-.86 1-1.86 1.7-2.28.87-.43 2-.58 3-.29a12.1 12.1 0 013.86 2.57 18.62 18.62 0 013.57 4.42c1 1.85 2.28 4.56 2.57 6.42.28 1.42-.86 3.56-.86 4.27 0 .29.43.43.71.43.43.15 1.57 0 2.29 0 .57 0 1.14.15 1.71.43.57.29 1.57.71 1.86 1.43.7 1.28.28 4.27.42 4.42.29.28 3.43-.29 5.14 0 1.71.28 3.43 1.14 5.14 1.85 1.71.71 3.71 1.57 5.42 2.14 1.57.57 4.71 1.57 4.57 1.28-.14-.28-3.14-1.42-5.28-2.7a28.52 28.52 0 01-6.14-5.57 20.8 20.8 0 01-3.57-6.13c-.71-1.85-1-3.85-1.14-5.7-.14-1.86.14-4 .29-5.42.14-1 .43-2.14.85-2.86.43-.7 1-1.57 1.72-1.85.71-.29 2-.43 2.85-.14a3.66 3.66 0 012 1.85c.28.71.28 2.14-.29 2.71-1.42 1.57-2.14 1-3.42.86-.72-.15-1-.57-1.43-1.14-.86-1.15-1-3.14-1.14-4.28 0-.86.43-1.71.86-2.29.57-.85 1.57-2 2.56-2.7 2-1.43 3-1.57 4.14-1.29A4.71 4.71 0 0148 22.73a4.4 4.4 0 01-1.43 3.85c-1 .72-3.28 1.43-4.7.58-2.3-1.57-1.44-4-.72-5.42a22.96 22.96 0 013.57-4.43c.57-.7 1.28-1.56 2.14-1.7.85-.3 2.42-.3 3.28.28A4.03 4.03 0 0152 19.17c0 1-.85 2.28-1.85 2.57-1 .28-3.28.42-4.57-.57-1.28-1.15-1.14-4.28-1.28-5.7-.15-.87.14-1.58.43-2.43.28-.86 1.14-2 2.14-2.57a5.15 5.15 0 013.42-.57c.86.28 3 1.14 2.86 4 0 1.28-1.72 1.56-1.86 2.13-.14.57.71 1.14 1.28 1.43.72.28 2 .43 2.86.14 2.28-.57 3.71-2.28 4.7-3.42.87-1 1.58-2.57 1.58-3.85 0-1.43-.29-3.85-1.57-5C58.85 4.2 56 3.2 54.29 3.48c-2.57.43-4.14 3.28-4.43 5a5.68 5.68 0 001.43 4.7c1 1 3 1.57 4.28 1.57 1.43 0 2.29-.43 3.28-.29.86 0 1.72.29 2.43.72.57.42 1.29 1.14 1.29 1.85.28 1.57.28 5.13.14 7.42-.14 2.13-1.14 4.27-1.43 6.13a19.5 19.5 0 00.14 4.99c.29 1.71 1.43 3.28 1.72 5 .42 2.84.14 8.83.85 11.97.72 2.71.57 5.7 3.86 7.56 4 2.28 7.27-.57 9.99-1.71 2.42-1.14 4-3.85 5.7-5.56 1.43-1.43 2.72-3 4.14-4.42 1.29-1.43 2.72-2.86 4-4.28 1.28-1.57 2.57-3.28 4-5 1.57-2 4.28-5.41 5.42-7.13.71-1 1.28-2.14 1.43-3.28.14-1.42.28-4.27-.43-5.42-.71-1.14-2.57-1.7-4-1.14-1.14.43-3 2.57-1.85 5.28 1.14 2.42 4.42 1.43 5.28.29 1-1.15.71-5.14.43-6.85-.29-1.43-1.15-3.28-2.29-3.85-1.14-.57-3.7-.71-4.56.14-.86.72-1.57 3-.43 4.57.57.85 2.7 1.28 3.56.7 1.72-.99 1.72-2.99 1.29-4.55-.57-1.57-1.57-4-3-4.85-1.42-.86-3.57-1.43-5.28-.29-1.57 1.14-1.71 3.14-.57 4.7a3.27 3.27 0 005 .44c1.28-1.57.57-5-.29-6.85-.86-1.85-3.14-4.28-4.57-4.56-1.57-.29-3.7.7-4.7 2.56-.72 1.29-.58 4.28.7 5.28 2.15 1.71 4.15.43 4.86-1.28 1.57-3.71-1-6.85-2-8.7-.85-1.57-2.85-2.43-4.28-3a6.58 6.58 0 00-3.71-.14 13.75 13.75 0 00-3.57 2.28 7.6 7.6 0 00-1.71 2.85c-.29.86-.43 1.86-.14 2.57.28.71.85 1.71 1.7 2 1.3.42 4.86.28 6 .57.43.14 1 .85 1 1.14 0 .28-.85.43-1.28.43-.72.14-1.72 0-2.57 0h-3.57c-.71 0-1.57-.15-2.28.14-.72.28-1.72 1-2.29 1.71-.57.86-1.28 2.14-1.57 3.28A28.72 28.72 0 0071 23.3c-.15 1.86 0 4.71-.15 6.42a22.4 22.4 0 01-.57 3.28C69.7 34.86 68 38.56 67 40.7c-.86 1.86-1.86 3.43-2.57 5.28-.86 1.85-1.71 4-2.14 5.7a13.36 13.36 0 00-.86 4c0 1.28 0 2.7.72 3.7.71 1.29 2.28 2.72 3.56 3.71 1.15.86 2.72 1.43 4 1.72 1.29.28 2.57.42 3.85-.15 3.14-1.42 9.7-6.13 15.13-8.41 5.57-2.28 14.7-4.28 17.84-5.13.43-.15 1 0 1.43.14.43.28.57 1 1 1.14.43.14 1.14.14 1.43-.14.85-.72 2.56-3 3.85-4.14 1.14-1.14 3-1.71 3.57-3 .71-1.28.43-3.42.28-4.84-.14-1.29-.85-2.71-1-3.85-.14-1 0-2.43.15-3 1.28-4.14 3.42-8.56 5.56-8.13 3.43.71 4.71 8.99 5.71 12.27.72 2.28.43 4.99.14 7.27-.28 2.28-1.42 4.56-2 6.42-.56 1.7-1.42 3.42-2 4.99l-1.28 3.85c-.42 1.43-1.7 3.14-2.85 4.42a31.87 31.87 0 01-5.14 4.42c-2.14 1.57-5.42 2.85-7.42 4.57-1.86 1.56-4 3.13-4.57 5.56-.85 3.85-.28 14.26-1 17.54-.28 1.28-2.14 2.28-3.28 2.14-4.7-.86-5.56-5.56-6-8.99-.14-1.85-.14-3.85.58-5.7 1.71-5 4.56-8.99 8.42-11.98 7.13-5.28 12.42-5.99 15.98-7.13 1.86-.57 3.43-.71 5-1.43 1.71-.71 3.7-1.85 4-3.7.85-6-.86-11.41-1.43-15.4-.57-3.15-1.29-6.28-2.57-9-1.72-3.42-5.28-8.7-7.28-11.55-1.43-2.13-2.71-4.42-4.71-6.13-2.86-2.56-9.42-9.84-12.56-9.41-1.57.14-1.71 3.42-1.14 5.13.71 2.29 4.28 5.57 5.56 8.28 1.29 2.42 1.29 5.42 2.43 7.84 1.14 2.57 3.28 5.7 4.14 7.42.57 1 1 2.14 1.28 3.13.29 1-.14 1.29.58 3.14.7 1.71 2.85 2.14 3.14 2.28.14 0-2-.14-2.86 0-.86.15-1.57.57-2.43.86-1.57.71-4.7 2-6.85 3.14a144.07 144.07 0 00-6.42 3.56c-3 1.71-8.28 5-11.27 6.85-2.43 1.57-5 3-7 4.99-2 2-4.7 4-4.85 6.7-.28 3.28 2.86 9.56 3.57 12.84.43 2.28.71 4.56.86 6.84.14 3.85.14 12.55.42 16.55a36.7 36.7 0 001.29 7.27c.57 1.71.57 4.7 2.28 4.85 14.56.86 211.33.43 234.74.28" stroke="#ff8400" stroke-miterlimit="10" stroke-linecap="round" stroke-linejoin="round"/></svg><svg fill="none" viewBox="0 0 318 145" id="services-5" xmlns="http://www.w3.org/2000/svg"><path opacity="10" d="M1 103.3c10.15-.13 30.58-.38 33.5 0 .25 0-2.54 6.58-3.18 8.73-.63 2.28-.76 5.7.9 7.34 2.15 2.15 5.7 2.9 8.87 3.92a3896.78 3896.78 0 0071.18 20.37c1.78.5 4.31.5 5.58-.38 1.4-.76 1.9-2.78 2.41-4.43 5.46-18.6 25-88.3 29.94-107.28.51-2.03.9-4.3-.25-6.46-1.01-2.15-3.8-2.9-5.96-3.67-5.2-1.77-21.7-6.32-25.5-7.2-.51-.13 1.52 2.78 2.66 3.92 1.27 1.39 4.95 2.78 5.2 4.3.13 1 .13 2.27-.25 3.03-.38.64-7.87-2.78-8.76-2.53-.25.13 1.9 2.53 3.17 3.17 1.4.75 4.06 1.13 5.71 2.15 1.65.88 3.43 2.4 4.2 3.67.75 1.13 1 4.04.5 3.92-8.75-2.28-45.3-11.52-53.54-14.8-.38-.13 1.9-2.79 3.42-3.42 1.65-.63 4.82-.89 6.73-.63 1.77.25 3.3.5 4.57.63.88.13 2.15.38 3.42-.25 1.14-.51 1.14-1.65 1.52-2.53.38-1.02.26-2.4.76-3.3a3.08 3.08 0 011.9-1.64c2.3-.63 3.18.13 4.32-.63 1.14-.76 1.78-2.78 2.67-3.92 1.64-2.03 3.04-2.66 5.2-2.15 2.03.5 3.04 1.51 3.17 4.17.13 1.65-.13 3.92.13 5.57.25 1.39 1.4 2.78 1.9 3.67.38.63.89 1 1.27 1.64.76 1.14 0 3.04-.25 3.04-3.81-.5-18.66-5.32-22.72-6.33-.5-.12-1.01 0-1.4.13-.37.25-.37 1.01-.75 1.01-.9 0-3.68-.63-4.44-1.14-.64-.5-.51-1.77.12-2.15 1.65-1.01 10.4-3.8 10.03-3.92-2.41-1.27-20.68-6.33-25.63-7.6a10.5 10.5 0 00-3.93-.24c-1.02.12-2.03.5-2.92 1a5.05 5.05 0 00-2.16 2.16c-.76 1.52-1.52 4.43-2.16 6.7C57.33 26.51 40.84 83.56 35.76 98c-.12.38 1.65.5 2.41.88.13.13-4.82 15.18-5.07 16.95-.13.76 82.34 25.43 82.85 24.55 4.19-9.36 27.28-95.9 30.95-105.51.26-.64-79.67-22.78-81.45-23.79-.38-.38-25.25 77.17-25.75 83.63 0 .5 48.84 4.05 58.36 4.68.25 0-.89-.89-1.52-1.65-1.02-1.26-2.8-3.8-3.18-5.94a14.9 14.9 0 01.9-7.72c1.13-2.53 3.67-5.31 5.95-7.6 3.81-3.4 14.6-13.53 15.87-13.28 1.01.26 5.07 15.95 6.21 20.5.64 2.28 1.14 4.68 1.02 6.96a18.33 18.33 0 01-2.41 6.7 11.72 11.72 0 01-3.18 3.42 11.38 11.38 0 01-3.55 1.64c-1.4.38-3.04.89-4.57.89a38.1 38.1 0 01-5.58-.5c-1.01-.26-2.4-.77-2.66-1.65-.26-1.27 1.27-1.27 2.03-1.27 1.27-.12 3.8.51 5.7.89 3.05.5 8.25 2.28 12.57 2.4 12.43.38 123.41 10.88 195.84-3.8" stroke="#ff8400" stroke-miterlimit="10" stroke-linecap="round" stroke-linejoin="round"/></svg><svg fill="none" viewBox="0 0 319 132" id="services-6" xmlns="http://www.w3.org/2000/svg"><path opacity="10" d="M.95 131.35h20.17l-.18-63.64-3.73-.1-.09-3.9h11.03l.18-22.1h9.25v-1.96l-9.43.09s-2.31 0-2.4-1.51c-.1-1.78 1.42-1.6 2.22-1.7l16.1.19s1.78.53 1.78 2.4c0 2.04-2.14 2.4-2.14 2.57 0 4.17.1 22.2.1 22.2l-9.8.18-3.55 3.46-2.22.18.18 23.53s5.33-1.33 7.64-1.24c2.05.09 5.96.62 6.05 2.48.1 1.42-3.64 1.69-5.96 1.78-2.22 0-7.65-1.24-7.73-1.24-.1.08 0 14.91 0 14.91s1.69 6.66 7.64 6.66c4.9 0 7.65-4.44 7.65-6.03.27-8.44.27-40.67.27-40.67l9.87.17V57.94s5.25 1.24 7.65 1.15c2.67-.08 6.67-.53 6.67-2.13 0-1.5-4.1-1.77-6.67-1.77-2.31 0-7.47 1.06-7.56 1.06-.09 0 .09-14.12.09-14.12h8.27v-1.6l-9.25-.08s-1.78-.18-1.87-1.42c-.09-1.6.98-1.7 1.78-1.7 3.3-.17 17.7 0 17.7 0s1.7.63 1.7 2.23c0 1.86-1.61 2.04-2.59 2.22l.09 22.38h-11.2l-4.1 5.77-.17 38s2.3 6.57 8 6.3c5.51-.26 7.3-4.08 7.56-6.12.36-2.3.09-40.14.09-40.14h7.2l1.7-3.46-.27-22.82s-1.96-.53-1.96-2.13a1.9 1.9 0 011.78-2.04c3.73 0 17.6.26 17.6.26s1.43.27 1.52 1.87a2.04 2.04 0 01-1.7 2.04c-1.6.09-7.28 0-7.28 0v1.86h5.96v20.96H81.33l-2.13 4.53v39.16s1.78 6.75 8.18 6.48a7.3 7.3 0 007.3-6.3c.26-2.13-.1-33.12-.1-33.12s-1.24 1.5-2.49 1.95c-1.6.53-5.33.53-7.29.18-1.42-.27-3.56-.8-3.64-2.13-.1-1.25 1.77-1.51 2.84-1.34 1.16.1 2.4.1 2.67.98.71 2.04 1.42 7.46 1.78 11.1.35 3.55.62 5.42.18 10.66a53.55 53.55 0 01-2.4 10.2c-.1 0 .97-6.12 1.06-8.96.18-5.6-.09-9.41-.53-13.68-.45-4-2.22-7.9-2.4-11.98-.18-4.35 1.15-11.72 1.06-14.21-.08-3.38-4-11.99-4.35-17.94-.27-3.73 1.42-9.68 1.78-11.45 0-.18-1.52-.54-2.05-1.7-.53-1.15.09-4.25 0-5.5 0-.17-.89-.88-1.87-1.86-1.24-1.24-1.95-4.53-1.6-7.02C77.95 9.01 80 .58 84.9.93c5.43.36 6.4 8.97 6.58 13.05a10.7 10.7 0 01-1.87 6.3c-.44.63-1.95 1.07-2.04 1.25-.27.89-.09 3.02-.27 4-.18.8-.44 1.6-.89 2.13-.44.53-1.78.89-1.78.98-.53 2.13-1.86 7.81-1.5 11.72.44 4.8 3.55 12.7 4.08 17.05.36 3.1-.53 7.01-.89 9.32-.17.98-.7 3.46-.17 5.24.08.36 1.69-.44 3.64-.35 2.23.08 4.72 1.5 4.9 1.6.08 0 .08-5.51.08-5.51l10.85-.1.18-25.83 7.03-.09-.1-1.69h-8.17s-1.52-.18-1.6-1.15c-.1-1.25.7-1.51 1.42-1.51 3.02 0 17.16.18 17.16.18s1.87.53 1.87 2.3c.09 1.51-2.31 2.31-2.31 2.4.09 4.18-.27 22.2-.27 22.2l-12.54.27-.09 2.75-2.4 2.31-.44 38.72s2.04 6.3 8 6.21c6.14-.09 7.3-4.62 7.47-5.95.45-2.4-.09-41.82-.09-41.82h3.12l.08-2.93 9.16.09.1 3.82h-4.45l.17 63.55h189.27" stroke="#ff8400" stroke-miterlimit="10" stroke-linecap="round" stroke-linejoin="round"/></svg><svg fill="none" viewBox="0 0 319 72" id="services-7" xmlns="http://www.w3.org/2000/svg"><path opacity="10" d="M1 45.5l25.5.5-2.1.7-1.8.7-2.5 1.2-2.2 1.5-1.7 2-.5 1.1-.1 1.7c0 .4.1 1 .3 1.3 0 .4.2.9.5 1.3.2.4.5.8.9 1 .5.3 1.1.7 1.8.8h3.5l3-.6c1-.3 2.2-1 3-1.2l2-1c.3-.2.5-.4.8-.4h.5v.7l.1 1 .4 1.5.7 1.3 1 1.7c.4.5.9 1 1.4 1.2.4.3 1 .4 1.5.7.3.1.9.2 1.1.4.4 0 .7.4 1 .5a12 12 0 004.8 0 18.6 18.6 0 004-2.3 24.8 24.8 0 002-1.8l1.7-1.7 1.4-1.8 1.3-2.2.4-1.2c0-.5.1-1.5-.1-1.8l-1 .3-.3-.1-.7-.7c-.4-.2-1.2-.9-1.8-1.1a6.8 6.8 0 00-1.5-1l-1.2-.3h-1c-.5.1-.8.4-1 .5-.5.3-.7.6-1 .9l-.9 1.2c-.3.2-.4.6-.7 1l-.5.9-.2.6v1l.1.7.5.9c.3.3.7.7 1 .8.3.2.6.5 1 .6.4.3.7.5 1.3.7h1.1c.4 0 .8 0 1.2-.2l1.3-1 1.3-1.3c.4-.4.8-.7 1.1-1.3l1-1.4c.2-.2.5-.5.6-.9l.4-1.1c.1-.2.4-.2.5-.3l.6-.3c.3-.2 1-.6 1.3-1l1.7-1.7c.5-.6 1.3-1.2 1.8-1.9l1.5-1.5 1.3-1.6c.3-.4 1-1.1 1-1.4l-1 .4-2.5 1.2L58 45c-1 .4-2 1-3.2 1.3l-3.4 1.4a159.5 159.5 0 00-9.6 4.1l-1.9.8-2 .9-2 .8-3.2 1.4 1.8-.8c.2-.1.4.5.6.4.3 0 .7-.4 1-.6l1.4-1.8 1.4-1.7c.4-.4.8-1 1.2-1.2l1.3-.7c.3-.3.9-.4 1.2-.7l1.5-.4c.5-.1 1.3-.4 2-.4a5.6 5.6 0 012 0c.5 0 1.1 0 1.7.3.6.1 1.3.5 2 .8l1.5 1.1c.2.3.7.7.7 1v2c0 .3-.6.6-.9.9l-.9.9a8 8 0 01-.9 1 9 9 0 00-1 1.3l-1 1.3-1 2c-.4.4-.5 1-.7 1.3a3 3 0 00-.3 1l-.1.6v2.5l.2 1 .5.8.7.7.5.6.7.5.7.5 1 .6 1.6.5h2.7c.3 0 .7 0 1-.2.3 0 .9-.3 1.2-.7.6-.3 1-.8 1.6-1.2l1.4-1.3c.4-.4 1-.7 1.3-1.1.4-.4.8-.8 1.2-1L65 64l1.6-1.4 1.4-1.4c.7-.6 1.4-1.4 2-2.2l2-2.2 2-2.2 1.7-2 1.3-2c.3-.6.9-1.2 1.2-1.9.4-.6 1-1.5 1.2-2.3.3-.6.7-1.5.8-2.2l.1-1.4-.1-1c-.1-.4-.4-.7-.4-.5l-1.3 2.3-1.3 1.9-1 1.3-1 1c-.4.2-.8.7-1.2.8l-1.3.2c-.3 0-1 0-1.4-.2a6 6 0 01-1.3-.7 3.5 3.5 0 01-1-.9 4 4 0 01-.7-.9c-.2-.2-.3-.5-.4-.9l-.1-1.6c0-.5.3-1 .6-1.6l1.2-2 1-1 1-.7c.4-.3.8-.4 1.2-.5.4-.2 1-.2 1.4-.2.4 0 1 0 1.3.3.4.1 1 .4 1.3.7l.8.9a4.5 4.5 0 01.9 1.8V40c0-.3-.1-.7-.3-1l-.7-.8-1.3-.7-1.8-.4-2.1-.2-1.2.1-1.1.4c-.4.1-1 .5-1.3.8l-1.2.9c-.4.2-.6.6-.9 1a3.9 3.9 0 00-.6.9l-.4.9s.5-.4.9-.5l1.3-.7 1-.3 2-.7 1-.4 1-.5 1-.5L76 37c.7-.2 1.4-.5 2-.9l3.2-1.3 3.2-1.6 2.9-1.3a71 71 0 013.2-1.6l2.3-.9c.4 0 1-.3 1-.3.3-.2.3-.7.5-1 0-.2.1-.3.4-.5h.7a.7.7 0 01.4.7l-.1 1.3a8.4 8.4 0 01-1 1.9c-.2.5-.4.9-.8 1.3a2.3 2.3 0 01-1 .9c-.3.2-.7.4-1 .4H90l-1.3-.4c-.4-.1-.7-.7-1.1-.8-.7-.1-1.7-.5-2.5-.2l-2 .9a6.8 6.8 0 00-1.8 1.4l-.9 1.1-.5 1c-.2.2-.2.4-.2.7-.2.3-.2.4-.2.7v1l-.6.4c-.3.2-.7 1-1 1.4L76.6 43c-.6.6-1.3 1.5-1.8 2.3l-1.6 2.2-.9 1.1-.7 1.2c-.2.5-.6 1-1 1.5l-.9 1.6-.8 1.5a7.8 7.8 0 00-.6 1.5l-1 2.4a7.3 7.3 0 00-.3 2.3l.1 2.7c.1.5.4 1 .8 1.4l1.4 1.4c.5.4 1 .8 1.6 1 .6.3 1.3.7 2 .8l2.5.1h4.1l.6.2.3-.4.7-1 1.2-1.8c.2-.7.5-1.3.6-2v-1.5l-.1-1.3c.1-.5.5-1.3.8-1.8l1-2 1-2.3 1.4-2.7 1.3-2c.4-.7.8-1.2 1-1.8.3-.7.5-1.4.9-2l.9-2.1.7-1.7 1.5-2.6c.3-.8 1-1.7 1.4-2.2.2-.4.6-.7 1-1.1l.8-1c.3-.2.4-.6.5-1 .1-.3.3-.9.3-1.4v-1.8c0-.4-.2-.7-.3-1.1a6 6 0 00-.6-1.3c-.3-.4-1-.8-1-1h1.1l1.4.3 1.6.8 1.1 1c.2.3.2.6.2.8l-.3 1.7a6.6 6.6 0 01-.8 1.7 3.8 3.8 0 01-1.1 1.2c-.3.2-.5.3-.8.3-.1 0-.5-.1-.5-.3 0-.2.2-.9.5-1.2.3-.6.6-1.2 1-1.6l1-.9a1 1 0 01.6-.2h.8c.2.2.2.7.4 1V35l-.3 1.8-.3 1.8-.5 3.3-.2 2.6-.4 2.7a28.3 28.3 0 01-.7 3.2c-.2 1-.5 2.2-.9 3-.2.6-.9 1.3-.9 1.8l.1 1.3.3 3v3l-.1 2.2c-.2.8-.4 1.8-.7 2.4-.2.7-.5 1.5-.9 2l-1.4 1.3-2 .5-4.1.1-2-.1-1.6-.4-1.7-.8-1.7-1.1 2 .7c.7.2 1.4.4 2 .4a47.6 47.6 0 008.7-.1 12 12 0 003.8-1c1.2-.4 2.8-1.3 4.1-2.1l3.4-2.4c.9-.7 1.6-1.5 2.6-2.1l2.4-2 2.3-2 2.9-2.7 2.6-2.7c.4-.4.9-.8 1.1-1.3l.7-1.8c.2-.5.9-1 1.3-1.5l1.3-2c.4-.7.8-1.5 1-2.3l.7-2 .7-2.9.3-2.5v-2.6l-.5-2.5-.5-1.5a15.1 15.1 0 00-1.3-2.4 36.1 36.1 0 00-1.7-2.4l-1.6-2.1-1.3-1.8c-.4-.7-.9-1.2-1.3-1.7l-1-1.4-1-1.3c-.4-.2-2 .7-3 1.1l-2.9 1.3-2.7 1.2c-.8.4-1.7.6-2.3 1-.7.3-1.3.5-1.8 1l-1.4 1.5-1.5 1.4-1.4 1.1-1.2.8h-.6l.6-.8 1.3-1.1 1-1 1.1-1.1.8-.9c.1-.2.2-.5.5-.6l1-.4 1.3-.5 2.5-1 2.5-1.2 4.4-2 2.4-.7a9 9 0 001.7-.7l1.6-.7 1.6-.8 1.8-.7 1.2-.3 2-1c.3-.3.9-.3 1.3-.5.3 0 .7-.3 1.1-.6l2-1.2a5.8 5.8 0 001.3-1.1c.2-.3.3-.8.3-1.2 0-.4 0-.6-.2-1l-.4-.8a2.8 2.8 0 00-.4-.6l-.4-.8a1.8 1.8 0 01-.2-.8l-.3-.6c-.1-.3-.1-.5-.3-.7a1 1 0 00-.5-.5 2 2 0 00-.9-.1l-.9.3c-.4 0-1.2.6-1.5.9-.4 0-.8.2-1 .3l-1.9 1-2 1c-.7.4-1.5.6-2.1 1l-3.5 1.7-3 1.4-4.4 2.2a44.7 44.7 0 00-3.5 1.7c-.8.3-1.7.7-2.5 1.2l-2.7 1.5-2.3.2-2 .3-2.8.6-3 .7c-.7.2-1.5.3-2.2.6l-1.8.8a46.7 46.7 0 00-2.6 1.4l-1.5.9-1.6 1.2c-.4.2-.8.6-1 .9-.2 0-.5.5-.5.6v1.3l-1.3.6c-.4.3-1 .4-1.5.7l-1.6.9a6 6 0 00-1.5 1c-.4.3-.9.6-1.1.9-.3.3-.4.6-.4.9-.2.4-.2.9-.2 1.4 0 .5 0 1 .2 1.4.1.4.2.7.5 1l1 .8c.3.2.7.3 1 .3l2.1-.1c.8-.2 1.6-.7 2.5-1l2.7-1.2 3.5-1.7 4.2-1.8a3.8 3.8 0 001.3-1.2c.2-.3.5-1.1.5-1.6 0-.7-.2-1.4-.3-1.8-.1-.4-.4-.7-.6-1a3.4 3.4 0 00-.8-.6 2.6 2.6 0 00-1-.5 7.9 7.9 0 00-2.5 0c-.3 0-1 .3-1.4.5-1 .4-3.1 1.7-4 1.8l-.4-.1-1.2-.6s-1.2-.2-1.7 0c-.8 0-1.8.3-2.6.6-.6.3-1.4.5-2 .9l-2.4 1.2-2.8 1.5c-1 .5-2.2 1-3.3 1.7l-3.5 1.9-1.9.8-2.8 1.5-2 1c-.5.3-.9.6-1.4.7l-1.8 1-2 1-2 1c-.7.5-1.6.9-2.4 1.2-.6.4-1.3.8-2 1l-2.5 1.4-2.2 1-2 1-1.8 1-2 1a16 16 0 01-2 1l2.4-.7 1.8-.4c.6 0 1.4-.3 2-.6.7-.3 1.6-.5 2.1-.8l1.7-.7a5.3 5.3 0 001.4-1l.8-.7c.1-.1.3-.5.1-.7a1 1 0 00-.2-.6l-1-.4-1-.5-1.5-1c-.4-.4-.8-.8-1-1.2a2.4 2.4 0 01-.2-.9l.1-1 1.5-2L39 32l1.7-1.4 1.8-1.1c.7-.4 1.5-1 2-1 .2-.2.5-.2.9-.3h1.8c.3.1.3.6.1.9a6.6 6.6 0 01-2 1.8L43 32.7a12.6 12.6 0 01-3.3 1.9l-1 .2h-1.1l.9-.9c.5-.3 1.3-1 1.8-1.6a24 24 0 012-1.8 23.1 23.1 0 001.9-1.7c.4-.4.8-.8 1-1.3.4-.4 1-.9 1.3-1.4.4-.4 1-1 1.2-1.4l.8-1 .4-.6c0-.2 0-.5.2-.6l.3-.8.7-.8 1-.5.9-.2h1c.3 0 .5 0 .7-.2.3 0 .8-.5 1.2-.7a8 8 0 011.6-.7l1.8-.9 2-1 1.9-.8 1.4-.7 1.3-.8 1.3-.8 1-.5 2.8-1.8 1-.8c.4-.2.7-.6.9-.9l1-.6 1-.3 1.5-.1h6.7c1 0 3.5-.1 4.7-.3l2.3-.2 3.1-.1c1 0 2-.2 2.9-.3l4-.1c.8 0 1.8.2 2.5.4.5 0 .9.2 1.4.5l1.1.4c.7 0 1.7.3 2.5.5l3 .2h4.6a44.3 44.3 0 018 1c.8.2 1.6.3 2.4.7l3 1.3c1.1.6 2.8 1.4 4 2.2 1.2.7 2.3 1.8 3.2 2.7 1 .9 1.6 1.9 2.2 3 .7 1.2 1.5 2.8 2 4.3.5 1.7.7 3.6.9 5.4V36a32.8 32.8 0 01-1 6 44.7 44.7 0 01-2 6.2c0 .2-1.6-.1-2.5-.1l-2.3-.1-4.7.2-2.8.4-1.6.5c-.4.3-.7.5-.9 1v1.2a5 5 0 001.7 1.6c.7.5 1.7.9 2.6 1.2 1 .4 2 .7 3 .8h3.3a8.6 8.6 0 003.3-.9 4.6 4.6 0 002-2 21.3 21.3 0 001.4-3.8l.5-2.3a89.8 89.8 0 001.5-11 56 56 0 00-.1-12.9 19.4 19.4 0 00-1.3-4.8 9.2 9.2 0 00-2.5-3.2 4.5 4.5 0 00-2.3-1.2c-.8-.2-2.2-.2-2.2-.2l-.4 7.3-.1 7.4.1 5.1.5 6.8a38.8 38.8 0 001 4.5c.5 1.2 1 2.3 1.6 3.1.6.7 1.3 1.4 2 1.4h3.7c5.2.1 169.7 1 177.1 1.3" stroke="#ff8400" stroke-miterlimit="10" stroke-linecap="round" stroke-linejoin="round"/></svg><svg viewBox="0 0 25 12" id="special-version" xmlns="http://www.w3.org/2000/svg"><path fill-rule="evenodd" clip-rule="evenodd" d="M12.83 7.96c-.1-.4-.67-.42-.8-.01l-.01.05-1.5-.46.02-.05c.59-1.92 3.31-1.85 3.8.09l-1.5.38z"/><path fill-rule="evenodd" clip-rule="evenodd" d="M2.44 7.17a4.83 4.83 0 119.65 0 4.83 4.83 0 01-9.65 0zm4.82-3.29a3.3 3.3 0 100 6.59 3.3 3.3 0 000-6.59zm5.52 3.29a4.83 4.83 0 119.66 0 4.83 4.83 0 01-9.66 0zm4.83-3.29a3.3 3.3 0 100 6.59 3.3 3.3 0 000-6.59z"/><path fill-rule="evenodd" clip-rule="evenodd" d="M24.86.53L22.4 7.29l-1.44-.52L23.42 0l1.44.53zM0 .53l2.46 6.76 1.45-.52L1.44 0 0 .53z"/></svg><svg fill="none" viewBox="0 0 11 11" id="tel" xmlns="http://www.w3.org/2000/svg"><path d="M8.34 10.83A8.35 8.35 0 010 2.5 2.5 2.5 0 013.3.14a.54.54 0 01.35.4L4.4 3.8a.54.54 0 01-.14.5c-.07.08-.07.08-.74.43a5.37 5.37 0 002.64 2.65c.35-.67.36-.68.43-.75a.54.54 0 01.5-.14l3.25.74a.54.54 0 01.39.35 2.36 2.36 0 01.13.81 2.5 2.5 0 01-2.5 2.45z" fill="#ff8400"/></svg><svg viewBox="0 0 23 18" id="tw" xmlns="http://www.w3.org/2000/svg"><path fill-rule="evenodd" clip-rule="evenodd" d="M22.22 2.79c-.78.33-1.62.56-2.5.65.9-.51 1.6-1.33 1.92-2.3-.85.47-1.78.82-2.78 1a4.44 4.44 0 00-3.18-1.3 4.27 4.27 0 00-4.36 4.18c0 .32.04.64.11.95a12.61 12.61 0 01-9-4.36A4.04 4.04 0 003.8 7.17a4.51 4.51 0 01-1.98-.52v.05c0 2.03 1.5 3.7 3.5 4.1a4.5 4.5 0 01-1.97.07 4.35 4.35 0 004.07 2.9A9.03 9.03 0 01.95 15.5a12.76 12.76 0 006.69 1.88 12.05 12.05 0 0012.4-12.43c.86-.6 1.6-1.33 2.18-2.16z"/></svg><svg viewBox="0 0 27 15" id="vk" xmlns="http://www.w3.org/2000/svg"><path fill-rule="evenodd" clip-rule="evenodd" d="M6.6 1.66c.73 1.7 1.65 3.3 2.86 4.75.16.19.36.36.57.5.32.2.61.13.74-.21.13-.36.25-1.08.26-1.45.02-.97 0-1.61-.06-2.59-.03-.62-.27-1.17-1.23-1.33-.3-.05-.33-.29-.14-.52.4-.48.96-.56 1.56-.6.98-.04 1.96 0 2.94 0 .4.01.8.04 1.19.12.51.11.78.45.87.92.04.25.06.5.06.75-.03 1.06-.08 2.13-.1 3.19 0 .42.03.84.13 1.25.13.57.53.71.95.3.53-.52 1-1.1 1.43-1.7.8-1.08 1.38-2.27 1.9-3.49.26-.63.46-.77 1.18-.77h4.03c.23 0 .48.02.7.1.37.1.52.39.43.74-.2.85-.67 1.56-1.19 2.25-.82 1.1-1.68 2.17-2.52 3.26-.11.14-.2.29-.3.44-.3.54-.29.84.17 1.3.73.7 1.52 1.38 2.22 2.11.52.54 1 1.12 1.4 1.73.52.77.2 1.5-.76 1.63-.6.08-3.57 0-3.72 0-.8 0-1.5-.27-2.06-.78-.62-.57-1.19-1.2-1.79-1.8a4.92 4.92 0 00-.58-.5c-.49-.35-.97-.27-1.2.28-.2.47-.37 1.7-.37 1.8-.04.56-.41.9-1.06.94-1.88.1-3.7-.1-5.4-.96a11.24 11.24 0 01-3.57-2.97 35.57 35.57 0 01-3.96-6.18C2.12 4.07.97 1.73.94 1.62.84 1.26.93.9 1.26.78c.2-.07 4 0 4.06 0 .61.04 1.02.28 1.28.88z"/></svg></svg>