<?xml version="1.0" encoding="utf-8"?>
<!-- Generator: Adobe Illustrator 25.2.3, SVG Export Plug-In . SVG Version: 6.00 Build 0)  -->
<svg version="1.1" id="Layer_1" xmlns="http://www.w3.org/2000/svg" xmlns:xlink="http://www.w3.org/1999/xlink" x="0px" y="0px"
	 viewBox="0 0 500 500" style="enable-background:new 0 0 500 500;" xml:space="preserve">
<style type="text/css">
	.st0{fill:none;stroke:#ffffff;stroke-width:0.8865;stroke-linecap:round;stroke-linejoin:round;stroke-miterlimit:8.8652;}
</style>
<path class="st0" d="M0.82,48.08c11.52-0.89,31.91,0,39.01,15.07c4.43,9.75,4.43,12.41,8.87,17.73c5.32,6.21,23.94,3.55,32.8,5.32
	c9.75,2.66,63.83,20.39,62.94,21.28c-4.43,6.21-7.09,28.37-6.21,27.48c0,0,4.43-17.73,13.3-25.71c1.77-0.89,13.3,5.32,19.5,6.21
	c9.75,1.77,25.71,1.77,31.91,1.77l6.21,3.55c1.77,1.77,9.75-1.77,15.07-1.77h30.14c2.66,5.32,0,9.75-2.66,10.64
	c-2.66,1.77-15.96,5.32-16.84,4.43c-2.66-2.66-3.55-4.43-7.09-5.32l-6.21-0.89c0,0,18.62,8.87,26.6,15.07
	c7.98,6.21,27.48,31.03,31.91,35.46c1.77,2.66-6.21-7.09-8.87-5.32c-2.66,2.66-2.66,8.87,7.98,8.87c2.66-0.89-3.55,4.43-8.87,1.77
	c-4.43-1.77-13.3-16.84-16.84-23.05c-5.32-6.21-26.6-20.39-30.14-23.05l7.98,8.87c5.32,3.55,17.73,10.64,23.05,15.96
	c4.43,5.32,5.32,12.41,7.98,17.73c2.66,5.32,9.75,10.64,9.75,15.96c-0.89,3.55-2.66-5.32-5.32-5.32c-1.77-0.89-4.43,0.89-4.43,2.66
	c-0.89,1.77,1.77,7.98,1.77,7.98c-5.32-5.32-17.73-26.6-26.6-35.46c-7.98-8.87-28.37-19.5-29.26-19.5l23.94,16.84l7.09,9.75
	c3.55,5.32,13.3,15.07,15.07,19.5c0,0-1.77,3.55-0.89,5.32c0.89,1.77,5.32,3.55,6.21,4.43c0,0-2.66,2.66-6.21,0.89
	c-9.75-4.43-22.16-23.94-27.48-28.37c-4.43-4.43-28.37-15.96-28.37-15.96l20.39,14.18l23.94,22.16c2.66,2.66-7.09-7.98-9.75-4.43
	c-1.77,3.55,8.87,6.21,8.87,6.21s-4.43,2.66-8.87,0.89c-4.43-1.77-23.94-15.96-39.89-23.94h-5.32
	c-8.87-1.77-39.89-20.39-54.96-29.26c-5.32-3.55-42.55-7.98-49.65-8.87c-2.66,0,0.89-24.82,7.09-38.12
	c2.66-5.32-21.28,28.37-13.3,41.67c0.89,0.89,43.44,3.55,53.19,7.98c12.41,7.98,27.48,17.73,38.12,23.05
	c7.98,3.55,19.5,6.21,23.94,8.87c10.64,4.43,31.91,17.73,40.78,21.28c1.77,1.77,6.21,1.77,7.98,0.89l2.66-2.66
	c0.89,0,6.21,7.09,9.75,7.98c3.55,0.89,7.98,0.89,10.64-0.89l2.66-3.55h2.66l2.66-2.66c0,1.77-0.89,10.64-7.09,15.96
	c-6.21,6.21-31.03,0-34.57,9.75c-1.77,5.32,3.55,5.32,6.21,6.21c3.55,0.89,7.98,5.32,8.87,5.32c5.32,0,13.3,8.87,16.84,9.75
	l19.5,9.75l13.3,1.77h27.48c3.55-0.89,8.87-5.32,8.87-5.32c0-0.89-14.18-8.87-16.84-13.3c-3.55-6.21-4.43-16.84,0.89-16.84
	c10.64-1.77,31.03,13.3,30.14,14.18c-2.66,7.09-1.77,12.41-0.89,14.18c0,0,1.77-13.3,6.21-13.3c1.77-0.89,9.75,8.87,18.62,15.96
	c6.21,4.43,11.52,23.94,11.52,23.94c-8.87,15.07-11.52,36.35-11.52,38.12l3.55-6.21c1.77-9.75,8.87-25.71,14.18-25.71l15.07,9.75
	c14.18,7.09,71.81,27.48,71.81,28.37c-3.55,25.71-1.77,70.04-2.66,70.92c0,0-7.09-37.23-6.21-62.06c0-2.66-6.21,35.46,0.89,62.94
	c0.89,0.89-70.04-40.78-85.99-48.76c-1.77-1.77-4.43-1.77-7.09-2.66l-7.98-7.98c-10.64-6.21-29.26-9.75-46.1-15.96l-18.62-7.98
	c-1.77,0,2.66-15.07,1.77-15.07c0-0.89-5.32,8.87-6.21,14.18c-0.89,3.55-13.3-12.41-23.05-20.39l-12.41-10.64l-4.43-5.32
	c-3.55-4.43-12.41-15.07-15.07-20.39c-1.77-2.66-2.66-7.98,0-7.98c5.32-1.77,15.07,8.87,22.16,14.18c5.32,5.32,5.32,7.98,8.87,10.64
	c4.43,3.55,11.52,10.64,15.07,9.75c3.55,0,8.87-13.3,7.09-13.3c-6.21,0-27.48-12.41-28.37-11.52c0,0,12.41,10.64,21.28,13.3
	c0.89,0-0.89,7.98-3.55,7.09c-4.43-1.77-15.96-15.96-20.39-20.39l-4.43-5.32c-3.55-2.66-10.64-11.52-15.96-7.98v-1.77
	c-1.77-1.77-10.64-8.87-13.3-7.98c-7.09,3.55-0.89,11.52,2.66,21.28c1.77,5.32,5.32,6.21,7.09,8.87
	c1.77,1.77,14.18,21.28,23.05,25.71l12.41,7.09c4.43,4.43,10.64,14.18,13.3,15.96c8.87,3.55,41.67,13.3,54.08,18.62l21.28,7.98
	c3.55,2.66,5.32,6.21,8.87,7.98c15.96,10.64,63.83,34.57,82.45,47.87c19.5,14.18,30.14,18.62,32.8,34.57
	c1.77,10.64-10.64,18.62-10.64,31.03c0,8.87,15.07,11.52,23.05,13.3"/>
</svg>
