<svg fill="none" xmlns="http://www.w3.org/2000/svg" viewBox="0 0 116 23"><path d="M.1 22.9a.1.1 0 01-.1-.1v-17c0-.05.04-.1.1-.1h4c.06 0 .1.05.1.1v.53l-.05.76c0 .02.01.03.03.03h.03l.15-.16c.07-.08.23-.22.49-.41a4.5 4.5 0 011.97-.94 6.4 6.4 0 011.58-.2c1.88 0 3.4.6 4.52 1.81a6.45 6.45 0 011.73 4.69c0 1.94-.61 3.5-1.84 4.69a6.37 6.37 0 01-4.63 1.78 6.06 6.06 0 01-3.15-.87l-.36-.3-.03-.01a.04.04 0 00-.03.04 9 9 0 01.05 1.02v4.54a.1.1 0 01-.1.1H.1zm4.42-10.92c0 .8.24 1.5.7 2.1a2.5 2.5 0 002.02.86c.77 0 1.42-.27 1.94-.8.52-.52.78-1.25.78-2.16a3.2 3.2 0 00-.75-2.21 2.51 2.51 0 00-1.97-.84c-.77 0-1.42.25-1.94.77-.52.51-.78 1.27-.78 2.28zm10.6 2.41c0-.84.3-1.54.92-2.12.6-.6 1.39-1.01 2.34-1.25a17.47 17.47 0 014.8-.65h.08a.1.1 0 00.1-.1v-.12c0-.91-.68-1.37-2.05-1.37-.52 0-1.1.1-1.72.32-.61.19-1.1.38-1.48.57l-.46.25a.1.1 0 01-.13-.04L16 7.1a.1.1 0 01.03-.13c.17-.12.4-.26.68-.4.34-.19 1.01-.42 2.02-.7 1.02-.31 2.04-.46 3.04-.46 1.96 0 3.48.45 4.58 1.34a4.5 4.5 0 011.67 3.7V18a.1.1 0 01-.1.1h-4.06a.1.1 0 01-.1-.1v-.65l.05-.73a.03.03 0 00-.03-.04 5.29 5.29 0 00-.15.2c-.06.08-.2.22-.43.43-.22.2-.46.4-.73.55a5.67 5.67 0 01-2.64.63 5.27 5.27 0 01-3.36-1.09 3.58 3.58 0 01-1.35-2.9zm4.69-.22c0 .3.1.55.32.74.23.2.56.3 1 .3a2.2 2.2 0 001.58-.7c.47-.47.7-.97.7-1.5v-.16a.1.1 0 00-.1-.1h-.33c-.84 0-1.59.12-2.23.36-.63.23-.94.58-.94 1.06zm10.55 3.92a.1.1 0 01-.1-.1V5.8c0-.05.05-.1.1-.1h4.28c.05 0 .1.05.1.1v2l-.06.73c0 .02.01.04.03.04a4.58 4.58 0 011.7-2.19 4.6 4.6 0 012.74-.9l.45.05a.1.1 0 01.09.1V9.5a.1.1 0 01-.12.1 5.6 5.6 0 00-.82-.06c-1.87 0-3.07.72-3.59 2.17a5.15 5.15 0 00-.24 1.68v4.59a.1.1 0 01-.1.1h-4.46zm10.42-3.7c0-.84.3-1.54.92-2.12.6-.6 1.39-1.01 2.34-1.25a17.47 17.47 0 014.8-.65h.08a.1.1 0 00.1-.1v-.12c0-.91-.68-1.37-2.05-1.37-.52 0-1.09.1-1.72.32-.6.19-1.1.38-1.48.57l-.45.25a.1.1 0 01-.13-.04L41.66 7.1a.1.1 0 01.03-.13c.17-.12.4-.26.68-.4.34-.19 1.02-.42 2.02-.7 1.02-.31 2.04-.46 3.04-.46 1.96 0 3.48.45 4.58 1.34a4.5 4.5 0 011.67 3.7V18a.1.1 0 01-.1.1h-4.06a.1.1 0 01-.1-.1v-.65l.06-.73a.03.03 0 00-.06-.02l-.13.18c-.05.08-.2.22-.43.43-.22.2-.46.4-.73.55a5.67 5.67 0 01-2.64.63 5.27 5.27 0 01-3.36-1.09 3.58 3.58 0 01-1.35-2.9zm4.69-.22c0 .3.1.55.32.74.23.2.57.3 1 .3a2.2 2.2 0 001.58-.7c.47-.47.7-.97.7-1.5v-.16a.1.1 0 00-.1-.1h-.33a6.4 6.4 0 00-2.23.36c-.63.23-.94.58-.94 1.06zm13.09 3.92a.1.1 0 01-.09-.07L54.66 5.83a.1.1 0 01.09-.12h4.69a.1.1 0 01.1.07l1.7 7.24.16 1.27c0 .01.01.02.03.02.01 0 .03 0 .03-.02.03-.41.11-.84.24-1.27l1.89-7.24a.1.1 0 01.1-.07h3.83a.1.1 0 01.1.07l1.88 7.24.22 1.27.02.02c.02 0 .03-.01.03-.03.02-.4.09-.83.2-1.26l1.7-7.24a.1.1 0 01.1-.07h4.63a.1.1 0 01.09.12l-3.81 12.19a.1.1 0 01-.1.07h-5.05a.1.1 0 01-.1-.07l-1.53-5.65-.27-1.3a.03.03 0 00-.03-.03.03.03 0 00-.03.03c-.05.43-.14.86-.27 1.3l-1.54 5.65a.1.1 0 01-.1.07h-5.1zm18.36-6.21c0-1.85.66-3.4 1.97-4.61 1.3-1.24 3.06-1.85 5.25-1.85 2 0 3.55.56 4.68 1.68a5.7 5.7 0 011.73 4.3l-.1 1.21a.1.1 0 01-.1.1h-8.54a.1.1 0 00-.1.11c.18.67.55 1.18 1.11 1.54.61.37 1.31.55 2.1.55a7.16 7.16 0 003.31-.94l.43-.26a.1.1 0 01.13.04l1.63 2.75a.1.1 0 01-.02.13l-.66.45c-.3.2-.98.46-2.02.8-1.02.33-2.08.5-3.18.5-2.35 0-4.2-.64-5.57-1.93a6.06 6.06 0 01-2.05-4.56zm4.91-1.68a.1.1 0 00.1.12h3.83a.1.1 0 00.1-.1c-.02-.44-.2-.82-.51-1.15a1.75 1.75 0 00-1.32-.53c-1.12 0-1.86.55-2.2 1.66zm10.87 7.89a.1.1 0 01-.1-.1v-17c0-.05.05-.1.1-.1h4.46c.06 0 .1.05.1.1v4.7l-.05 1.01c0 .02.02.04.04.04l.02-.01c.1-.1.22-.21.4-.35.2-.15.61-.34 1.26-.58a5.7 5.7 0 012.07-.38c1.89 0 3.4.6 4.53 1.8a6.45 6.45 0 011.72 4.69c0 1.94-.61 3.5-1.83 4.69a6.37 6.37 0 01-4.63 1.78c-.76 0-1.46-.12-2.1-.34a4.09 4.09 0 01-1.32-.72l-.37-.33h-.02a.04.04 0 00-.04.03c.02.2.03.42.03.66v.3a.1.1 0 01-.1.1H92.7zm4.43-6.1c0 .8.23 1.49.7 2.08a2.5 2.5 0 002.02.87c.77 0 1.41-.27 1.94-.8.52-.52.78-1.25.78-2.16a3.2 3.2 0 00-.76-2.21 2.52 2.52 0 00-1.96-.84c-.78 0-1.42.25-1.94.77-.52.51-.78 1.27-.78 2.28z" fill="#C4C4C4"/><circle cx="113.5" cy="15.5" r="2.5" fill="#8C0C04"/></svg>