<?xml version="1.0" encoding="utf-8"?>
<!-- Generator: Adobe Illustrator 25.2.3, SVG Export Plug-In . SVG Version: 6.00 Build 0)  -->
<svg version="1.1" id="vk" xmlns="http://www.w3.org/2000/svg" xmlns:xlink="http://www.w3.org/1999/xlink" x="0px" y="0px"
	 viewBox="0 0 500 500" style="enable-background:new 0 0 500 500;" xml:space="preserve">
<style type="text/css">
	.st0{fill:none;stroke:#8A1702;stroke-width:19.2308;stroke-miterlimit:76.9231;stroke-opacity:0.5;}
	
		.st1{opacity:0.5;fill:none;stroke:#FFFFFF;stroke-width:1.8182;stroke-linecap:round;stroke-linejoin:round;stroke-miterlimit:6.0606;enable-background:new    ;}
	.st2{fill:none;stroke:#FFFFFF;stroke-width:5.3191;stroke-miterlimit:21.2766;}
	.st3{fill:none;stroke:#000000;stroke-width:0.8865;stroke-linecap:round;stroke-linejoin:round;stroke-miterlimit:8.8652;}
	
		.st4{opacity:0.5;fill:none;stroke:#000000;stroke-width:1.7585;stroke-linecap:round;stroke-linejoin:round;stroke-miterlimit:5.8617;enable-background:new    ;}
	.st5{fill-rule:evenodd;clip-rule:evenodd;}
	
		.st6{opacity:0.5;fill:none;stroke:#000000;stroke-width:1.6181;stroke-linecap:round;stroke-linejoin:round;stroke-miterlimit:2.4272;enable-background:new    ;}
</style>
<path d="M450,212.5l40.6,40.5l-38.5,38.5 M0,250h425"/>
<path d="M60.5,301L10,250.5L60.5,200 M500,245H190"/>
<path d="M439.5,301l50.5-50.5L439.5,200 M0,245h310"/>
<circle class="st0" cx="250" cy="250" r="182.7"/>
<path class="st1" d="M24.8,366c0,0-33.9-17.6-19.6-26.8c14.4-9.3,74.4,22,80.4,15c7.5-8.9-60.1-33.1-47-41.2
	c19.6-12,106.3,35.4,117.5,28.7c0.6-8.9-47.6-33.9-44.6-41.9c5.8-4.1,52.9,17,53.2,16.1c0.2-0.6,3.4-10.2,3.4-10.2l-0.6-2.8
	l8.7-17.3l-1.5-1.6l12.2-22.8c0,0,2.2,5.3,13.5,7.8c5.1,1.1,21,8.2,17,20.9c-2.9,9-8,10.3-11.6,9c-2.7-1-13.5-13-19.8-17.2
	c-1-0.6-4.2,6.8-4.2,6.8l-2.7-1.2l-14.6,28.7l6.7-8l3.7-0.9l10.2-17.5l1.2,0.5l15-22.3c0,0,21.2-4.7,28.6-10.7
	c1.5-1.3-3.4,7.9-7.9,9.3c-1.3,0.4,1.7,5.3-4.9,9.6c-0.4,0.2,4.1,6.8,3.8,10.3c-0.4,6.5-6.2,13.2-6.1,14.2c0.1,0.6,6.6,1.3,9.1,0.6
	c2.4-0.6,3.8-3.2,5.9-4.3c2.3-1.2,5.3-1.5,7.5-2.8c5.6-3.4,6.1-11,7.8-13.5c0.6-0.8,1.8-0.8,2.6-1.4c1.5-1,2-2.7,3.4-3.7
	c1.4-1,3.4-1.1,4.7-2.3c3.4-3.1,5.4-7.4,6.1-9.8c0.2-0.8,4.5-1.1,6.6-2c2.8-1.1,5.2-4.7,8.4-6.1c9.3-3.8,18.7,1.3,26.6,1.9
	c11.9,0.8,41.8-3.5,60.4-7.5c3.8-0.8-32.9,8.6-50,10.6c-17.6,2-33.4-2-36.7-1c-1,0.3-2.2,1.8-3.8,2.2c-1.2,0.3-7.7,0.4-8,0.7
	c-1.4,2.5-5.9,5.4-9.6,6.6c-3.9,1.1-8.4,3.9-10.2,5.9c-1.8,1.9-6.3,17.8-12.8,21.2c-3.5,1.8-6.8-4.8-7.6-9.8
	c-1-6.1,4.7-28,12.3-32.3c18.1-10.2,46.3-5.5,62.9-4.6c15.1,0.8,32.1-3,31.8-5.7c-0.4-3.4-34.7,6-36.5,5.4
	c-11.3-3.5-22.3-5.6-32.1-5.2c-9.2,0.4-18.6,3.4-26.7,7.3c-11.5,5.4-36.9,17.7-42.4,13.7c-0.4-0.3,14-4.2,21.1-9.4
	c1.4-1-4.7-14.8-11.2-16.7c-2.5-0.8-13.5,9.2-16.6,15.4c-1.3,2.7,5.6,10.7,4,8.7c-8.5-10.6-5.4-15.6,1.5-23.4
	c4.6-5.2,9.3-9.5,13.2-12.4c3-2.2,7.3-3.5,9.9-4.9c1.8-1.1,3.2-3,5.3-3.5c7.6-1.7,19-6,26.2-8.9c13.9-5.7,23.2-17.2,22.8-17.6
	c-3.7-4.3-18.8,14.7-26,18.8c-5.3,3.1-17.3,6.2-17.3,6.2c3.8-7.2,21.2-39.4,25.5-47.7c0.2-0.5-1.1-2.1-1.5-3.1
	c-0.4-1,11-19.9,12.6-24.2c0.2-0.5-5.7-3.4-5.9-3.1c-2.1,4.3-10.7,19.1-13.7,23.6c-0.1,0.2-5.2,0.2-7.6,0.4
	c-4.1,0.5-9.5,1.6-14.6,4.4c-4.6,2.5-8.1,7.7-12.7,10.8c-10.7,7.4-32.9,14.8-43.3,33.5c-3,5.4,7.6,37.2,6.4,44.8
	c-1.8,11-2.4,10.5-1.2,13.7c0.2,0.6,6.9,2.6,12.5-2.5c3.3-3-0.6-12.4,0.3-19.4c0.9-6.4,9.9-11.1,10.9-16.5c1-5.4-2-12.2-4.8-15.7
	c-2.8-3.4-13.6-7.3-12.4-4.7c1.1,2.5,20.4,8.6,18.8,20.4c-0.2,0.8,9.4-4.2,9.8-4.9c7.8-15.1,43.5-80.2,44.3-81.4
	c3-4,13.9,2.9,12.7,5.1c-2.7,5-8,13.7-7.6,14c1.9,1,31.6,1.1,47.7,5.4c14.8,4,16.7,2.8,24,3.4c12.1,1.1,37.4-4.1,49.6-7
	c12.2-2.9,79.3-5,94.3-6.9c15-1.9,38.6-14.5,38.8-5.5"/>
<circle class="st2" cx="249" cy="248.7" r="123.7"/>
<path class="st2" d="M50.9,294.8L5.3,249.2l45.6-45.6 M449.1,294.8l45.6-45.6l-45.6-45.6"/>
<path d="M320,21.8H51.1v471.1h397.9V157.1L320.4,21.4L320,21.8z M418.9,169.6v1.1H306.4V52.9h1.1L418.9,169.6z M81.1,460.7V53.2
	h195.4v148.9h142.9v258.9H80.7L81.1,460.7z"/>
<path d="M113.9,347.5l227.8-227.8l23.1,22.8L136.9,370.3l-22.8-22.8H113.9z"/>
<path d="M29.6,123.1l201.9,108.5c6.9,3.8,15.4,5.4,24.2,5.4c8.8,0,17.7-1.9,24.6-5.4l201.9-108.5c13.1-6.9,25.4-34.6,1.5-34.6H28.1
	C3.8,88.5,16.5,116.2,29.6,123.1z M488.5,182.3L280.4,290.8c-9.2,5-15.4,5.4-24.6,5.4c-8.8,0-15.4-0.4-24.2-5.4L24.6,182.3
	c-10.8-5.4-10.4,1.2-10.4,5.8v196.5c0,11.5,15.4,26.9,26.9,26.9h430.8c11.5,0,26.9-15.4,26.9-26.9V188.5
	C498.8,183.5,498.8,176.9,488.5,182.3L488.5,182.3z"/>
<path class="st3" d="M0.9,39c11.5-0.9,31.9,0,39,15.1c4.4,9.8,4.4,12.4,8.9,17.7c5.3,6.2,23.9,3.5,32.8,5.3
	c9.8,2.7,63.8,20.4,62.9,21.3c-4.4,6.2-7.1,28.4-6.2,27.5c0,0,4.4-17.7,13.3-25.7c1.8-0.9,13.3,5.3,19.5,6.2
	c9.8,1.8,25.7,1.8,31.9,1.8l6.2,3.5c1.8,1.8,9.8-1.8,15.1-1.8h30.1c2.7,5.3,0,9.8-2.7,10.6c-2.7,1.8-16,5.3-16.8,4.4
	c-2.7-2.7-3.5-4.4-7.1-5.3l-6.2-0.9c0,0,18.6,8.9,26.6,15.1c8,6.2,27.5,31,31.9,35.5c1.8,2.7-6.2-7.1-8.9-5.3
	c-2.7,2.7-2.7,8.9,8,8.9c2.7-0.9-3.5,4.4-8.9,1.8c-4.4-1.8-13.3-16.8-16.8-23c-5.3-6.2-26.6-20.4-30.1-23l8,8.9
	c5.3,3.5,17.7,10.6,23,16c4.4,5.3,5.3,12.4,8,17.7s9.8,10.6,9.8,16c-0.9,3.5-2.7-5.3-5.3-5.3c-1.8-0.9-4.4,0.9-4.4,2.7
	c-0.9,1.8,1.8,8,1.8,8c-5.3-5.3-17.7-26.6-26.6-35.5c-8-8.9-28.4-19.5-29.3-19.5l23.9,16.8l7.1,9.8c3.5,5.3,13.3,15.1,15.1,19.5
	c0,0-1.8,3.5-0.9,5.3c0.9,1.8,5.3,3.5,6.2,4.4c0,0-2.7,2.7-6.2,0.9c-9.8-4.4-22.2-23.9-27.5-28.4c-4.4-4.4-28.4-16-28.4-16
	l20.4,14.2l23.9,22.2c2.7,2.7-7.1-8-9.8-4.4c-1.8,3.5,8.9,6.2,8.9,6.2s-4.4,2.7-8.9,0.9c-4.4-1.8-23.9-16-39.9-23.9h-5.3
	c-8.9-1.8-39.9-20.4-55-29.3c-5.3-3.5-42.6-8-49.6-8.9c-2.7,0,0.9-24.8,7.1-38.1c2.7-5.3-21.3,28.4-13.3,41.7
	c0.9,0.9,43.4,3.5,53.2,8c12.4,8,27.5,17.7,38.1,23c8,3.5,19.5,6.2,23.9,8.9c10.6,4.4,31.9,17.7,40.8,21.3c1.8,1.8,6.2,1.8,8,0.9
	l2.7-2.7c0.9,0,6.2,7.1,9.8,8s8,0.9,10.6-0.9l2.7-3.5h2.7l2.7-2.7c0,1.8-0.9,10.6-7.1,16c-6.2,6.2-31,0-34.6,9.8
	c-1.8,5.3,3.5,5.3,6.2,6.2c3.5,0.9,8,5.3,8.9,5.3c5.3,0,13.3,8.9,16.8,9.8l19.5,9.8l13.3,1.8h27.5c3.5-0.9,8.9-5.3,8.9-5.3
	c0-0.9-14.2-8.9-16.8-13.3c-3.5-6.2-4.4-16.8,0.9-16.8c10.6-1.8,31,13.3,30.1,14.2c-2.7,7.1-1.8,12.4-0.9,14.2
	c0,0,1.8-13.3,6.2-13.3c1.8-0.9,9.8,8.9,18.6,16c6.2,4.4,11.5,23.9,11.5,23.9c-8.9,15.1-11.5,36.3-11.5,38.1l3.5-6.2
	c1.8-9.8,8.9-25.7,14.2-25.7l15.1,9.8c14.2,7.1,71.8,27.5,71.8,28.4c-3.5,25.7-1.8,70-2.7,70.9c0,0-7.1-37.2-6.2-62.1
	c0-2.7-6.2,35.5,0.9,62.9c0.9,0.9-70-40.8-86-48.8c-1.8-1.8-4.4-1.8-7.1-2.7l-8-8c-10.6-6.2-29.3-9.8-46.1-16l-18.6-8
	c-1.8,0,2.7-15.1,1.8-15.1c0-0.9-5.3,8.9-6.2,14.2c-0.9,3.5-13.3-12.4-23-20.4l-12.4-10.6l-4.4-5.3c-3.5-4.4-12.4-15.1-15.1-20.4
	c-1.8-2.7-2.7-8,0-8c5.3-1.8,15.1,8.9,22.2,14.2c5.3,5.3,5.3,8,8.9,10.6c4.4,3.5,11.5,10.6,15.1,9.8c3.5,0,8.9-13.3,7.1-13.3
	c-6.2,0-27.5-12.4-28.4-11.5c0,0,12.4,10.6,21.3,13.3c0.9,0-0.9,8-3.5,7.1c-4.4-1.8-16-16-20.4-20.4l-4.4-5.3
	c-3.5-2.7-10.6-11.5-16-8v-1.8c-1.8-1.8-10.6-8.9-13.3-8c-7.1,3.5-0.9,11.5,2.7,21.3c1.8,5.3,5.3,6.2,7.1,8.9
	c1.8,1.8,14.2,21.3,23,25.7l12.4,7.1c4.4,4.4,10.6,14.2,13.3,16c8.9,3.5,41.7,13.3,54.1,18.6l21.3,8c3.5,2.7,5.3,6.2,8.9,8
	c16,10.6,63.8,34.6,82.4,47.9c19.5,14.2,30.1,18.6,32.8,34.6c1.8,10.6-10.6,18.6-10.6,31c0,8.9,15.1,11.5,23,13.3"/>
<path class="st4" d="M18.1,455.1c32.5-38.4,135.2-92.8,165.4-105.7c10.9-4.7,20.4-9.9,31-14c16.4-6.5,56.5-9.8,64.3-2.1
	c7.6,7.4,0,14.7-6.1,16.3c-4.9,1.3-22.4-5.3-16.5-16c2.4-4.4,20.9,4.6,27.3,1.9c14.8-6.3,17-18.3,23.7-22c5.6-3,14.7-1.7,16.8,4.1
	c1,2.6,0.9-9.9-7-11.8c-5.8-1.5-11.1,3.2-13.1,7.4c-4.4,9.3-21.2,40.8-5.8,46.2c8.9,3.1,16.2-4,19.8-10.6
	c5.1-9.3,11.2-27.9,16.1-34.9c2.9-4.1,8.2-8.6,13.5-7.1c3.2,0.9,7.3,9.3,4.4,18.7c-0.8,2.7,9.8-19.3-4.6-23.8
	c-9.4-2.9-14.9,6.3-18.1,13.1c-5.1,10.9-17.4,43.9-9.2,49.1c2.6,1.7,5.9,2,8.8,1.3c4.7-1.3,12.9-5.5,16.7-12c2.8-4.6,6-24.5,14-24.2
	c8.6,0.4,7.4,11.9,10.8,19c4.2,8.8-8.4,17.2-13.6,16.5c-17.4-2.1-9.5-21.9-7.8-28.5c1.7-6.7,9.7-12.3,14.1-11.2
	c7.1,1.7,7.2,5.7,7.8,9c0.4,3.3-1.4,5.6-1.4,7.4c0.1,1.2,0.6,2.8,1.6,3.3c8.2,4.3,32.8,4.4,34.7-6c1.5-8.2-29.4-23.4-44.7-19.1
	c-4.5,1.3,52.2,19.9,59.9-3.1c5.7-17.2-47.5-39-51.8-30.3c-2.8,5.7,61.8,28.4,67.7,7.7c6.5-23-61.4-39.2-66.4-42.3
	c-6.7-4.2,79.9,26.6,85.4,11.7c7.8-21-67.6-38.3-92-44.7c-16.5-4.2-37.4-8.1-51.3-4.5c-13.3,3.5-17.1,26.3-31.6,26.3
	c-10-0.1-5-29.4,0.4-39.7c5.4-10.3,19.3-20.4,32.1-22.1c23.8-3,56.2,14.5,70.3,9.4c29.2-10.5,73-67.3,94.9-89.9
	c13.7-14.1,29-35.6,36.7-46.4"/>
<path class="st5" d="M453.1,497.3l-170-170.4l38.8-39.2l170.4,170l-39.2,39.2L453.1,497.3z"/>
<path class="st6" d="M-98.6,529.1c0,0,127.6-111,145.6-126.4c18-15.4,1.5-24.1,4.4-28.2c2.8-4.1,26.4,16.1,29.7,10.9
	c3.2-5.2-49.4-53.8-43.4-57.5c6-3.7,69.4,64.9,76.5,57.3c7.1-7.6-74.3-69.8-79.8-89.8c-18.8-67.6,72.2-73.9,122-46.6
	c13.3,7.3,16.1,20.4,9.5,20.2c-9.8-0.2-56.4-40.1-60.5-34.9c-4.1,5.2,92.7,67.3,85.5,76.6c-7.3,9.3-113.8-86.1-118.7-74.8
	c-3.4,7.8,120.6,88.4,115.5,100.7c-2.1,5.1-155.7-73.3-145.2-85.7c21.1-24.8,140.1,101.4,132,109.8C166.1,369.3,38,255,33,267.4
	c-2.9,7.2,131.9,101.5,127.7,106.8c-5.5,7-107.6-77.4-110.4-70.8c-3.3,7.9,82.2,70.5,86.7,72.1c37,13.6,64.2-47.7,49.6-83.6
	c-7.7-18.9-12.1-58.4-25.7-56.6c-21.6,2.9,58.1,36.3,61.9,32c5.7-6.5-59.9-38.6-57.7-49c2.3-10.5,52.5,40.2,79.1,38.5
	c39.1-2.5,57.4-38.6,46.4-72.7c-11-34.1-72.6-71-77.1-61.4s87,66.8,80.1,77.2c-6.9,10.4-123.4-100.3-128.6-87.1
	c-5.2,13.3,133.4,101.6,125.5,110.1c-8,8.4-142.9-75.7-141-88.9c3.5-24,133.9,101.4,125.5,111.2c-8.4,9.8-126-95.9-130.2-87.4
	c-4.2,8.5,118.3,92.4,109.9,97.4c-6.5,3.9-60.5-34.9-82.6-53.3c-21.4-17.8-9.6,30.4-14.8,24.8c-1.9-2.1-21.5-54.1-5.2-101.3
	c7.9-22.8,74.3-30.3,113.5,0.1c39.2,30.4,25.5,50.5,21.2,28.9c-4.4-21.6-17.8-38-8.8-44.7c9-6.7,124.8-119.3,128.6-142.4"/>
<path class="st5" d="M256.6,289.2c-2-8-13.4-8.4-16-0.2l-0.2,1l-30-9.2l0.4-1c11.8-38.4,66.2-37,76,1.8l-30,7.6H256.6z"/>
<path class="st5" d="M10000,130"/>
<path class="st5" d="M497.2,140.6L448,275.8l-28.8-10.4L468.4,130L497.2,140.6z M0,140.6l49.2,135.2l29-10.4L28.8,130L0,140.6z"/>
</svg>
